<ttFont>
          <CharString index="0">
            93 rlineto
            -16 -106 callgsubr
            return
          </CharString>
          <CharString index="1">
            -55 rlineto
            -10 -6 -4 -52 callgsubr
            -7 return
          </CharString>
          <CharString index="2">
            508 7 rmoveto
            49 vlineto
            -36 5 rlineto
            -12 1 -7 5 16 vvcurveto
            325 vlineto
            -17 16 rlineto
            -52 -68 -6 -12 236 callsubr
            42 -10 rlineto
            10 -2 6 -8 -11 vvcurveto
            -240 vlineto
            -12 -19 -20 -6 -20 hhcurveto
            -40 -19 20 69 hvcurveto
            256 vlineto
            -17 16 rlineto
            -51 -67 -7 -12 -51 hvcurveto
            -54 vlineto
            39 -10 -6 callgsubr
            5 -8 -11 vvcurveto
            -185 vlineto
            -98 43 -45 87 200 callsubr
            vhcurveto
            -32 16 29 -16 43 hhcurveto
            31 39 9 5 18 hvcurveto
            return
          </CharString>
          <CharString index="3">
            -30 26 28 -11 27 -96 callgsubr
            return
          </CharString>
          <CharString index="4">
            355 vlineto
            -105 38 -10 -10 rlineto
            return
          </CharString>
          <CharString index="5">
            30 204 rmoveto
            -131 61 -82 134 88 66 34 66 19 vhcurveto
            -28 21 rlineto
            -28 -25 -40 -13 -40 hhcurveto
            35 callsubr
            4 17 2 23 19 vvcurveto
            81 -49 59 -116 -132 -74 -76 -144 vhcurveto
            197 167 rmoveto
            38 17 -34 -47 -7 0 -5 -1 -5 hvcurveto
            -115 hlineto
            74 6 22 24 33 hhcurveto
            return
          </CharString>
          <CharString index="6">
            317 568 rmoveto
            -285 -55 hlineto
            -102 callgsubr
            285 52 vlineto
            -56 11 rlineto
            -12 171 callgsubr
            397 vlineto
            12 5 7 12 2 vhcurveto
            56 11 rlineto
            return
          </CharString>
          <CharString index="7">
            hmoveto
            -21 callsubr
            -55 -45 -18 -37 -35 vhcurveto
            -7 40 -19 16 -49 -1 -59 -7 -51 -47 callsubr
            -10 -2 vhcurveto
            -40 12 callgsubr
            228 255 callgsubr
            -10 4 -6 130 callgsubr
            22 6 20 hhcurveto
            43 19 -25 -68 hvcurveto
            -172 vlineto
            -12 -5 -5 -11 -4 vhcurveto
            -25 12 callgsubr
            vlineto
            return
          </CharString>
          <CharString index="8">
            449 161 rmoveto
            90 -70 49 -83 43 vhcurveto
            -76 38 -45 23 56 vvcurveto
            40 26 27 43 21 23 -7 -9 13 vhcurveto
            9 -7 4 -8 3 -15 15 -82 rcurveline
            76 hlineto
            8 47 4 55 -4 48 rrcurveto
            18 -44 -63 12 -58 hhcurveto
            -138 -68 -72 -95 -96 70 -37 76 -40 hvcurveto
            66 -34 55 -30 -62 vvcurveto
            -43 -28 -29 -48 -33 -30 15 13 -14 vhcurveto
            -10 8 -4 8 -2 12 -14 94 rcurveline
            -78 hlineto
            -8 -43 -5 -64 3 -53 rrcurveto
            return
          </CharString>
          <CharString index="9">
            307 202 rmoveto
            -118 -22 -39 -44 -54 -16 46 122 118 22 39 44 54 16 -45 -123 vhcurveto
            -278 1 rmoveto
            -145 77 -67 127 123 92 57 164 145 -76 68 -127 -122 -94 -59 -163 vhcurveto
            return
          </CharString>
          <CharString index="10">
            -65 9 -31 25 -33 vhcurveto
            -104 callsubr
            return
          </CharString>
          <CharString index="11">
            -54 vlineto
            44 -9 -6 callgsubr
            5 -8 -11 vvcurveto
            -239 vlineto
            -12 -6 -7 return
          </CharString>
          <CharString index="12">
            -18 16 rlineto
            -52 -70 -7 -14 -52 hvcurveto
            -96 callsubr
            -11 -2 vhcurveto
            return
          </CharString>
          <CharString index="13">
            579 502 rmoveto
            53 11 rlineto
            55 -223 -55 vlineto
            60 -11 181 callsubr
            -12 vvcurveto
            -301 vlineto
            -238 388 -71 callgsubr
            11 vvcurveto
            337 vlineto
            255 -420 rlineto
            125 481 hlineto
            12 139 callsubr
            return
          </CharString>
          <CharString index="14">
            -3 -10 -6 -5 -10 -3 rlinecurve
            -49 -12 rlineto
            -52 212 52 vlineto
            -69 12 31 102 rlineto
            185 hlineto
            32 -102 -70 -12 rlineto
            -52 273 52 vlineto
            -45 12 -10 3 -6 5 -4 10 rlinecurve
            return
          </CharString>
          <CharString index="15">
            243 517 rmoveto
            2 13 16 2 16 hhcurveto
            64 31 -29 -78 -86 -36 -36 -48 -1 hvcurveto
            -12 -24 -1 3 -20 hvcurveto
            74 -293 rmoveto
            52 vlineto
            -56 10 rlineto
            -12 199 callsubr
            160 63 vlineto
            14 -16 12 -24 13 -32 37 -96 rcurveline
            -44 18 15 -29 21 hhcurveto
            156 52 hlineto
            -34 9 -13 3 -6 5 -7 16 rlinecurve
            -40 88 -21 48 -26 26 -39 16 rlinecurve
            59 17 63 32 108 vvcurveto
            110 -65 42 -163 vhcurveto
            return
          </CharString>
          <CharString index="16">
            -28 callsubr
            20 callgsubr
            42 -17 59 vhcurveto
            4 3 0 4 hhcurveto
            -109 14 54 -54 88 hhcurveto
            return
          </CharString>
          <CharString index="17">
            29 202 rmoveto
            -119 59 -92 135 88 58 39 53 18 vhcurveto
            -28 22 rlineto
            -15 -18 -32 -19 -43 hhcurveto
            -70 -26 50 99 107 30 40 38 15 12 -6 -7 8 hvcurveto
            7 -6 4 -8 4 -17 21 -73 rcurveline
            64 hlineto
            8 45 4 49 -4 49 rrcurveto
            18 -33 -55 14 -52 hhcurveto
            -123 -89 -77 -146 hvcurveto
            return
          </CharString>
          <CharString index="18">
            394 93 rmoveto
            -4 -13 -7 -7 -10 -4 rrcurveto
            -5 -13 -23 -4 -30 hhcurveto
            -63 421 hlineto
            11 139 callsubr
            75 12 rlineto
            55 -304 348 callgsubr
            -399 -10 callsubr
            452 vlineto
            15 70 0 69 62 vvcurveto
            -69 9 rlineto
            return
          </CharString>
          <CharString index="19">
            hstem
            5 243 56 165 vstem
            18 -117 rmoveto
            -61 vlineto
            -6 29 38 -4 33 hhcurveto
            86 53 59 122 43 hvcurveto
            120 342 4 11 6 4 11 4 rlinecurve
            28 9 rlineto
            51 -165 -53 vlineto
            51 -11 -78 -245 -83 244 54 12 rlineto
            52 vlineto
            -243 1 rlineto
            -51 vlineto
            28 -9 11 -3 7 -6 4 -10 rlinecurve
            129 -335 rlineto
            53 hlineto
            -45 -83 -62 -17 -112 -17 rrcurveto
            return
          </CharString>
          <CharString index="20">
            rmoveto
            37 -24 25 -37 -37 -24 -25 -37 -39 245 callsubr
            24 24 39 vhcurveto
            196 hmoveto
            37 -24 25 -37 -37 -24 -25 -37 -39 245 callsubr
            24 24 39 vhcurveto
            return
          </CharString>
          <CharString index="21">
            rmoveto
            74 40 72 51 37 46 -72 67 rcurveline
            -144 -164 rlineto
            endchar
          </CharString>
          <CharString index="22">
            rmoveto
            158 callgsubr
            45 -9 -6 callgsubr
            5 -8 -11 vvcurveto
            -290 vlineto
            -85 -23 -43 -85 -42 vhcurveto
            23 -55 58 15 56 19 39 32 rlinecurve
            41 33 21 45 88 vvcurveto
            372 vlineto
            return
          </CharString>
          <CharString index="23">
            58 vstem
            21 47 rmoveto
            22 -47 rlineto
            350 hlineto
            6 48 1 50 -5 49 -58 6 rcurveline
            -26 -80 -3 -10 -7 -4 -12 -2 rlinecurve
            -4 -18 -26 -1 -22 hhcurveto
            -45 hlineto
            226 315 -20 47 rlineto
            -339 hlineto
            -4 -45 3 -54 7 -48 rrcurveto
            59 hlineto
            18 73 4 14 7 3 11 2 rlinecurve
            2 14 21 1 18 hhcurveto
            48 hlineto
            return
          </CharString>
          <CharString index="24">
            rmoveto
            -11 9 -9 7 11 vvcurveto
            7 4 8 21 22 vhcurveto
            80 84 -83 78 rlineto
            -14 hlineto
            -75 -88 rlineto
            -38 -44 -6 -23 -19 vvcurveto
            -32 16 -15 29 -23 137 callgsubr
            -52 -53 -65 32 84 -66 vhcurveto
            -42 -35 rlineto
            -102 57 94 -75 114 hhcurveto
            93 65 48 80 76 -62 52 -66 49 hvcurveto
            return
          </CharString>
          <CharString index="25">
            39 vlineto
            65 29 11 45 1 vhcurveto
            16 1 32 -5 27 -6 28 74 rcurveline
            21 -31 -37 17 -39 hhcurveto
            -97 -94 -107 -102 -4 hvcurveto
            -1 -9 -64 -11 -63 callsubr
            vlineto
            return
          </CharString>
          <CharString index="26">
            26 -22 -20 17 -24 hhcurveto
            -23 -15 -15 -22 -12 hvcurveto
            -4 -9 rlineto
            -9 -17 -7 -20 -17 vvcurveto
            -37 31 -21 57 18 17 2 4 18 vhcurveto
            return
          </CharString>
          <CharString index="27">
            188 -6 125 -104 -21 356 64 -51 51 hstemhm
            4 221 287 165 hintmask 01011100
            162 -6 rmoveto
            104 hlineto
            75 276 84 -276 rlineto
            102 hlineto
            104 342 4 11 6 4 10 3 rlinecurve
            26 9 rlineto
            51 -165 -53 vlineto
            hintmask 10101100
            53 -11 -61 -230 rlineto
            hintmask 10011100
            -82 294 rlineto
            -105 hlineto
            -78 -295 rlineto
            hintmask 01101100
            -64 231 rlineto
            hintmask 01011100
            50 11 rlineto
            53 -221 -51 vlineto
            27 -9 10 -3 5 -4 3 -10 rlinecurve
            return
          </CharString>
          <CharString index="28">
            -11 -68 callgsubr
            return
          </CharString>
          <CharString index="29">
            156 -9 80 -79 72 106.5 48 6.5 48 66 85 -53 53 hstemhm
            187 callgsubr
            117 120 hintmask 1001011110000000
            620 91 rmoveto
            -29 21 rlineto
            -28 -24 -41 -13 -38 hhcurveto
            -70 -31 43 111 -1 hvcurveto
            231 hlineto
            3 17 3 23 18 vvcurveto
            82 -51 59 -112 -58 -45 -16 -29 -33 vhcurveto
            29 -23 -37 16 -55 hhcurveto
            -84 -65 -37 -65 -24 hvcurveto
            hintmask 0110101110000000
            30 -26 rlineto
            29 31 40 14 40 hhcurveto
            51 31 -21 -57 hvcurveto
            -40 vlineto
            -74 -5 rlineto
            -85 -4 -76 -40 -79 vvcurveto
            -61 45 -40 80 64 52 26 43 30 vhcurveto
            hintmask 1001011110000000
            -45 31 50 -25 72 hhcurveto
            80 71 31 69 21 hvcurveto
            -171 280 rmoveto
            37 17 -35 -46 hvcurveto
            -17 -115 vlineto
            73 6 24 25 31 hhcurveto
            hintmask 0110011110000000
            -248 -307 rmoveto
            -31 -12 15 30 31 13 27 48 2 hvcurveto
            41 3 2 -29 6 -26 9 -23 rlinecurve
            -18 -23 -26 -12 -27 hhcurveto
            return
          </CharString>
          <CharString index="30">
            -26 -95 callgsubr
            return
          </CharString>
          <CharString index="31">
            -96 callgsubr
            hintmask 10110000
            -46 -107 callsubr
            -2 -61 callsubr
            endchar
          </CharString>
          <CharString index="32">
            rmoveto
            49 11 rlineto
            55 -277 -55 vlineto
            56 -11 181 callsubr
            -12 vvcurveto
            -370 vlineto
            -120 -15 -39 -97 -51 vhcurveto
            23 -55 rlineto
            185 48 42 65 169 vvcurveto
            353 vlineto
            12 6 6 11 3 vhcurveto
            return
          </CharString>
          <CharString index="33">
            rmoveto
            -46 27 rlineto
            -44 -27 -35 -19 -42 hhcurveto
            -41 -35 19 44 -24 hvcurveto
            -52 -27 rlineto
            -70 11 59 -52 78 hhcurveto
            78 60 49 73 16 hvcurveto
            endchar
          </CharString>
          <CharString index="34">
            -17 17 -53 -1 -73 -9 -52 -14 rlinecurve
            -51 vlineto
            47 -7 181 callsubr
            -12 vvcurveto
            -473 116 callsubr
            -44 12 callgsubr
            253 338 callsubr
            return
          </CharString>
          <CharString index="35">
            rlineto
            -11 2 -6 7 12 vvcurveto
            return
          </CharString>
          <CharString index="36">
            rmoveto
            -45 27 rlineto
            -43 -27 -38 -17 -41 hhcurveto
            -42 -38 17 43 -26 hvcurveto
            -51 -27 rlineto
            -67 13 60 -52 80 hhcurveto
            77 60 50 69 18 hvcurveto
            return
          </CharString>
          <CharString index="37">
            rmoveto
            121 74 129 -73 37 42 -125 119 -81 -3 return
          </CharString>
          <CharString index="38">
            62 -33 37 -47 -41 -28 -27 -39 -28 14 -17 16 -11 vhcurveto
            13 -9 11 -2 -21 vvcurveto
            -33 -29 -38 -35 -30 vhcurveto
            24 -32 rlineto
            69 33 66 71 84 vvcurveto
            return
          </CharString>
          <CharString index="39">
            162 callsubr
            377 -149 rmoveto
            8 13 -49 87 rlineto
            -9 -20 -24 -7 -23 hhcurveto
            -36 -32 19 55 -16 hvcurveto
            -9 28 37 -5 26 hhcurveto
            106 68 53 72 46 -29 47 -58 40 hvcurveto
            83 45 rlineto
            15 vlineto
            -60 75 -123 -66 rlineto
            -26 22 -4 12 11 34 callgsubr
            -43 27 -31 60 -40 hvcurveto
            -67 -36 rlineto
            -16 vlineto
            58 -74 107 57 rlineto
            30 -26 5 -22 -17 vvcurveto
            -53 -59 -23 -49 -19 -64 callsubr
            -17 vvcurveto
            -29 29 -27 68 -23 vhcurveto
            -117 6 54 -76 102 hhcurveto
            28 37 7 12 23 hvcurveto
            return
          </CharString>
          <CharString index="40">
            rmoveto
            -25 -8 19 22 35 21 27 53 2 hvcurveto
            8 -12 4 -15 -15 vvcurveto
            -37 -25 -26 -28 vhcurveto
            return
          </CharString>
          <CharString index="41">
            75 -62 vhcurveto
            -44 -34 rlineto
            -99 53 91 -59 return
          </CharString>
          <CharString index="42">
            284 0 59 140 62 -10 69 186 62 -56 56 hstemhm
            -7 222 149 131 163 65 hintmask 11001010
            740 hmoveto
            9 59 4 53 59 vvcurveto
            -64 10 -32 -90 -4 -13 -4 -6 -11 -5 rlinecurve
            -5 -13 -29 -3 -24 hhcurveto
            -77 hlineto
            hintmask 10101111
            194 vlineto
            157 -4 rlineto
            74 vlineto
            -157 -6 rlineto
            195 62 vlineto
            24 24 -4 -4 12 hvcurveto
            11 -5 7 -6 4 -13 19 -67 rcurveline
            65 hlineto
            4 53 0 51 -6 51 rrcurveto
            -566 -55 hlineto
            93 -15 -181 -417 -4 -9 -6 -5 -9 -3 rlinecurve
            -55 -12 rlineto
            -52 222 52 vlineto
            -72 11 rlineto
            hintmask 11010110
            57 136 rlineto
            164 -116 hlineto
            3 callgsubr
            vlineto
            39 506 rmoveto
            35 -245 -138 hlineto
            return
          </CharString>
          <CharString index="43">
            354 callgsubr
            72 -11 -20 24 -28 hhcurveto
            -12 -18 -4 -20 -22 hvcurveto
            -6 -5 rlineto
            -23 -21 -6 -16 return
          </CharString>
          <CharString index="44">
            rlineto
            -50 334 callsubr
            -262 vlineto
            -12 201 callsubr
            -12 callsubr
            return
          </CharString>
          <CharString index="45">
            196 408 rmoveto
            -21 16 -46 -1 -57 -7 -47 -13 rlinecurve
            15 callsubr
            267 52 vlineto
            -61 7 rlineto
            -12 2 -6 7 12 vvcurveto
            return
          </CharString>
          <CharString index="46">
            16 46 hvcurveto
            return
          </CharString>
          <CharString index="47">
            -20 -44 -49 -61 24 -57 callgsubr
            return
          </CharString>
          <CharString index="48">
            119 -6 57 -51 51 208 61 199 53 -4 -20 294 callsubr
            186 150 hintmask 10110110
            37 259 rmoveto
            69 hlineto
            hintmask 01110110
            -178 vlineto
            -9 -6 -7 -9 330 callsubr
            142 vlineto
            28 58 -5 -1 34 hvcurveto
            hintmask 10110110
            180 -3 105 110 202 vvcurveto
            187 -92 82 -185 vhcurveto
            hintmask 10101110
            -42 -38 -4 -50 hhcurveto
            -140 -55 hlineto
            59 -12 rlineto
            8 -1 6 -7 -9 vvcurveto
            -164 -69 vlineto
            207 -261 rmoveto
            200 93 61 -93 vlineto
            hintmask 10110110
            192 vlineto
            1 5 20 6 24 hhcurveto
            99 38 -88 -149 -175 -50 -55 -84 -1 hvcurveto
            hintmask 10101110
            -17 -22 2 6 -13 hvcurveto
            endchar
          </CharString>
          <CharString index="49">
            -36 11 -40 -28 vvcurveto
            -46 -31 -44 -47 -52 -5 53 33 82 32 48 56 44 vhcurveto
            16 vlineto
            -100 54 rlineto
            -68 -60 -27 -70 -62 vvcurveto
            -72 35 -54 40 -36 vhcurveto
            -34 37 53 -28 54 hhcurveto
            77 54 55 90 hvcurveto
            return
          </CharString>
          <CharString index="50">
            37 6 callsubr
            214 -20 38 -20 hstemhm
            75 131 125 131 hintmask 11011100
            247 hmoveto
            52 vlineto
            -25 7 rlineto
            -11 4 -5 130 callgsubr
            22 6 20 hhcurveto
            44 19 -25 -68 hvcurveto
            -172 vlineto
            -12 -6 -5 -11 -4 vhcurveto
            -24 12 callgsubr
            228 -50 callgsubr
            186 vlineto
            100 -29 57 -98 328 callgsubr
            hintmask 11101100
            262 vlineto
            hintmask 11011100
            -18 18 rlineto
            -52 -73 -6 -14 -52 hvcurveto
            -51 vlineto
            47 -8 rlineto
            11 -1 6 -8 -11 vvcurveto
            -476 vlineto
            -12 -7 -47 callgsubr
            -12 callsubr
            vlineto
            return
          </CharString>
          <CharString index="51">
            -8 71 306 56 -5 -20 238 -20 37 -20 hstemhm
            30 138 131 131 hintmask 11001110
            240 63 rmoveto
            -47 -25 41 106 hvcurveto
            122 1 33 37 53 hhcurveto
            15 17 -3 -6 12 hvcurveto
            -283 vlineto
            -9 -18 -22 -5 -19 hhcurveto
            -46 -71 rmoveto
            49 38 19 31 28 hvcurveto
            -33 16 29 -16 42 hhcurveto
            32 39 9 5 17 hvcurveto
            49 vlineto
            -36 5 rlineto
            -11 1 -7 5 16 vvcurveto
            hintmask 11010110
            555 vlineto
            hintmask 10101110
            -18 17 -52 -1 -73 -9 -53 -14 rlinecurve
            -51 vlineto
            48 -7 181 callsubr
            -12 vvcurveto
            -132 vlineto
            hintmask 11001110
            3 -16 -20 2 -18 hhcurveto
            -138 -77 -81 -149 -142 69 -61 95 hvcurveto
            return
          </CharString>
          <CharString index="52">
            vhcurveto
            -30 26 27 -11 28 -76 callsubr
          </CharString>
          <CharString index="53">
            -44 callsubr
            27 hhcurveto
            return
          </CharString>
          <CharString index="54">
            -37 callsubr
            -33 16 59 -16 hvcurveto
            -11 26 34 -4 30 hhcurveto
            return
          </CharString>
          <CharString index="55">
            55.5 return
          </CharString>
          <CharString index="56">
            -25 -64 callgsubr
            return
          </CharString>
          <CharString index="57">
            41 callgsubr
            hstemhm
            323 259 62 203 hintmask 00101110
            -38 callsubr
            hintmask 01011110
            234 callgsubr
            hintmask 10001110
            -13 callgsubr
            hintmask 00111110
            -101 387 rlineto
            hintmask 00101110
            -39 callsubr
            return
          </CharString>
          <CharString index="58">
            -228 -108 rmoveto
            -61 -22 33 45 24 7 20 10 15 hvcurveto
            -1 6 7 0 7 hhcurveto
            75 hlineto
            47 17 -15 -38 -54 -34 -29 -59 hvcurveto
            return
          </CharString>
          <CharString index="59">
            6 14 -39 89 rlineto
            -12 -27 -30 -7 -22 hhcurveto
            -38 -37 17 48 -19 hvcurveto
            return
          </CharString>
          <CharString index="60">
            -13 rlinecurve
            -96 callsubr
            return
          </CharString>
          <CharString index="61">
            -147 rmoveto
            8 13 -49 89 rlineto
            -12 -20 -25 -8 -25 hhcurveto
            -34 return
          </CharString>
          <CharString index="62">
            vvcurveto
            -51 -57 -60 callsubr
            return
          </CharString>
          <CharString index="63">
            -30 26 28 -11 return
          </CharString>
          <CharString index="64">
            hmoveto
            35 70 rlineto
            -76 89 -21 92 84 vvcurveto
            107 42 71 71 82 41 -93 -116 -72 -19 -88 -73 -74 vhcurveto
            35 -70 rlineto
            248 hlineto
            13 59 7 60 2 58 -64 10 rcurveline
            -37 -83 -7 -16 -4 -4 -9 -4 rlinecurve
            -12 -4 -24 -6 -30 -1 -38 -1 rcurveline
            91 51 72 101 119 vvcurveto
            151 -114 89 -149 -157 -118 -97 -155 -115 66 -98 93 -47 vhcurveto
            -40 2 -25 1 -28 6 -12 4 rlinecurve
            -11 4 -4 7 -5 13 -35 83 rcurveline
            -65 -10 1 -58 6 -60 12 -59 rlinecurve
            endchar
          </CharString>
          <CharString index="65">
            rmoveto
            -120 -74 -129 73 -37 -42 125 -120 80 4 rlineto
            return
          </CharString>
          <CharString index="66">
            121 rmoveto
            -84 79 -49 121 vhcurveto
            hintmask 11100100
            128 82 55 92 76 -56 39 -59 31 hvcurveto
            hintmask 11011000
            52 20 36 41 52 vvcurveto
            72 -70 47 -104 -114 -70 -56 -84 -59 35 -38 40 -27 vhcurveto
            hintmask 11101000
            -61 -21 -39 -47 -60 vvcurveto
            hintmask 11011000
            144 283 rmoveto
            34 23 21 36 39 28 -25 -50 -22 -6 -31 -25 -23 vhcurveto
            -54 27 -41 25 44 vvcurveto
            hintmask 11100100
            61 -360 rmoveto
            -46 -43 29 59 33 14 31 25 22 hvcurveto
            1 -1 rlineto
            65 -34 54 -24 -51 vvcurveto
            -34 -24 -30 -46 vhcurveto
            endchar
          </CharString>
          <CharString index="67">
            272 vlineto
            11 5 7 11 3 vhcurveto
            40 10 rlineto
            55 return
          </CharString>
          <CharString index="68">
            63 13 rlineto
            55 -266 -55 vlineto
            48 -11 9 -2 6 -7 3 -9 rlinecurve
            149 -486 rlineto
            123 hlineto
            89 331 rlineto
            return
          </CharString>
          <CharString index="69">
            518 -2 rmoveto
            123 hlineto
            136 486 3 10 6 6 10 2 rlinecurve
            51 11 rlineto
            55 -203 -55 vlineto
            63 -13 rlineto
            return
          </CharString>
          <CharString index="70">
            381 -46 callsubr
            return
          </CharString>
          <CharString index="71">
            87 352 88 hstem
            27 103 177 102 vstem
            479 73 rmoveto
            -67 90 rlineto
            -16 hlineto
            -55 -50 -69 -33 -71 hhcurveto
            -45 -31 13 34 46 58 19 70 22 hvcurveto
            47 16 104 34 85 vvcurveto
            44 -28 46 -38 31 vhcurveto
            31 -36 -44 19 -58 hhcurveto
            -52 -59 -17 -31 -42 hvcurveto
            59 -103 rlineto
            14 hlineto
            37 44 49 26 45 hhcurveto
            26 18 -10 -24 -45 -63 -19 -59 -20 hvcurveto
            -85 -29 -73 -32 -77 vvcurveto
            -44 24 -43 36 -32 vhcurveto
            -42 45 55 -22 74 hhcurveto
            77 83 28 57 58 hvcurveto
            return
          </CharString>
          <CharString index="72">
            459 -34 rmoveto
            77 -55 36 -101 vhcurveto
            -74 hlineto
            -57 -22 8 26 9 2 10 8 9 hvcurveto
            -3 16 19 -1 21 hhcurveto
            return
          </CharString>
          <CharString index="73">
            hhcurveto
            -25 -9 12 16 23 19 20 35 18 hvcurveto
            22 11 -40 74 rlineto
            -11 -31 -33 -8 -31 hhcurveto
            -19 -18 2 5 -17 hvcurveto
            56 34 30 36 45 vvcurveto
            44 -30 40 -32 26 vhcurveto
            28 -33 -39 16 -37 hhcurveto
            -67 -52 -50 -69 -41 18 -43 30 -36 hvcurveto
            -29 -13 -33 -13 -35 -13 44 -89 rcurveline
            53 22 47 19 39 19 23 -11 25 -7 25 -4 1 -3 rcurveline
            -130 -60 45 -83 113 60 8 -20 15 -18 16 -14 rlinecurve
            -27 31 38 -13 38 hhcurveto
            return
          </CharString>
          <CharString index="74">
            68 -67 rlineto
            12 hlineto
            283 callgsubr
            10 hhcurveto
            return
          </CharString>
          <CharString index="75">
            294 hmoveto
            52 vlineto
            -62 8 rlineto
            -12 1 336 callgsubr
            264 return
          </CharString>
          <CharString index="76">
            rmoveto
            hintmask 11100110
            -38 22 rlineto
            -27 -16 -19 -20 -22 hhcurveto
            hintmask 11010110
            -22 callsubr
            hintmask 11100110
            35 32 -52 54 hhcurveto
            hintmask 11001110
            57 38 53 59 15 hvcurveto
            endchar
          </CharString>
          <CharString index="77">
            -236 -78 callgsubr
            697 90 62 callgsubr
            448 rmoveto
            153 72 85 229 192 221 -58 -95 208 vhcurveto
            21 29 rlineto
            124 -167 -261 90 -251 hhcurveto
            -238 -141 -87 -216 hvcurveto
            -314 -65 callgsubr
          </CharString>
          <CharString index="78">
            48 -17 39 -34 26 vhcurveto
            23 -26 316 callgsubr
            -41 262 callsubr
            68 -67 rlineto
            12 hlineto
            39 24 13 21 9 hhcurveto
            7 1 -16 -9 hvcurveto
            return
          </CharString>
          <CharString index="79">
            57 callgsubr
            -6 -10 rlineto
            return
          </CharString>
          <CharString index="80">
            370 callsubr
            6 97 hintmask 1010000010000000
            -1 callgsubr
            hintmask 1000100100000000
            -88 callgsubr
            hintmask 0100101000000000
            return
          </CharString>
          <CharString index="81">
            -160 rmoveto
            -22 203 rlineto
            -37 20 33 -15 29 hhcurveto
            46 41 35 61 19 hvcurveto
            -63 9 34 -33 43 hhcurveto
            29 38 15 18 25 hvcurveto
            46 -45 vlineto
            -22 -17 11 47 2 hvcurveto
            10 280 -17 16 -100 -13 rlineto
            hintmask 01011110
            3 -244 rlineto
            -49 -15 -34 -22 -30 hhcurveto
            -36 -41 31 78 -1 hvcurveto
            4 203 -18 16 -104 -13 rlineto
            2 -102 3 -69 -113 vvcurveto
            -76 -1 -137 -1 -94 vhcurveto
            hintmask 10101110
            17 -16 rlineto
            endchar
          </CharString>
          <CharString index="82">
            vvcurveto
            18 -11 20 -21 17 369 callsubr
            21 -28 -23 8 -18 hhcurveto
            -27 -22 -22 -33 -9 1 -9 2 -9 hvcurveto
            -7 -12 -15 -4 -16 hhcurveto
            -29 -18 16 29 39 34 36 63 26 hvcurveto
            -26 56 65 -15 64 hhcurveto
            return
          </CharString>
          <CharString index="83">
            147 rmoveto
            86 -82 39 -66 -4 vhcurveto
            hintmask 11110000
            57 15 62 49 62 vvcurveto
            84 -72 35 -78 -91 -56 -44 -49 -32 vhcurveto
            39 -36 rlineto
            22 19 39 25 40 hhcurveto
            32 22 -23 -31 -56 -59 -28 -56 -14 hvcurveto
            14 -56 rlineto
            hintmask 11101000
            15 2 24 6 15 3 rrcurveto
            44 -5 28 -34 -43 vvcurveto
            -59 -1 -41 -27 -51 hhcurveto
            -47 -38 18 22 -28 hvcurveto
            -33 -46 rlineto
            -34 33 54 -38 88 hhcurveto
            111 95 62 97 hvcurveto
            endchar
          </CharString>
          <CharString index="84">
            -12 rmoveto
            63 47 53 82 64 -29 60 -42 57 hvcurveto
            hintmask 11011000
            148 127 -68 82 rlineto
            -14 hlineto
            -138 -129 rlineto
            hintmask 10111000
            -53 51 -66 49 -65 33 -69 -88 rcurveline
            3 -12 75 -20 65 -31 50 -38 rlinecurve
            -59 -58 -29 -48 -52 vvcurveto
            -53 28 -42 35 -33 vhcurveto
            -32 34 44 -22 40 hhcurveto
            10 169 rmoveto
            -56 -30 -25 -27 -26 -12 24 28 44 25 43 40 37 vhcurveto
            19 -30 11 -32 -33 vvcurveto
            endchar
          </CharString>
          <CharString index="85">
            -36 -31 51 -55 hhcurveto
            -56 -39 -52 -60 -14 hvcurveto
            38 -22 rlineto
            27 15 19 21 23 hhcurveto
            return
          </CharString>
          <CharString index="86">
            52 vlineto
            -40 -81 callgsubr
            186 vlineto
            100 -29 57 -98 return
          </CharString>
          <CharString index="87">
            214 rmoveto
            hintmask 10101000
            -104 48 -86 104 -18 vhcurveto
            -82 71 81 vlineto
            69 8 53 35 20 46 -31 29 rcurveline
            hintmask 10111000
            -19 -18 -28 -22 -49 hhcurveto
            -66 -32 54 100 96 33 47 42 16 14 -5 -8 8 hvcurveto
            7 -6 5 -8 3 -16 18 -74 rcurveline
            67 hlineto
            hintmask 11000100
            9 45 3 46 -3 49 -25 14 -39 13 -42 6 rrcurveto
            hintmask 10100100
            79 -72 -79 vlineto
            hintmask 10111000
            -107 -13 -78 -73 -135 vvcurveto
            endchar
          </CharString>
          <CharString index="88">
            -5 -20 hhcurveto
            -31 -30 11 18 -31 hvcurveto
            -148 87 -31 -44 162 -118 rlineto
            -30 41 45 -23 56 hhcurveto
            47 48 16 34 45 hvcurveto
            return
          </CharString>
          <CharString index="89">
            -27 80 rlineto
            2 -17 -18 2 -17 hhcurveto
            -98 -53 -47 -55 -34 20 -31 33 -22 hvcurveto
            -34 -19 -20 -28 -36 vvcurveto
            -45 31 -42 32 -27 vhcurveto
            return
          </CharString>
          <CharString index="90">
            vlineto
            -3 -3 0 -3 hhcurveto
            -46 -16 -29 -25 -25 14 -20 27 -26 hvcurveto
            13 -12 rlineto
            -29 30 19 -12 22 hhcurveto
            32 23 22 38 hvcurveto
            28 return
          </CharString>
          <CharString index="91">
            -57 -11 rlineto
            -52 return
          </CharString>
          <CharString index="92">
            -2 callsubr
            9 -3 10 8 vvcurveto
            34 40 14 55 vhcurveto
            22 hlineto
            10 10 -18 callsubr
            30 -26 39 -20 43 -7 rrcurveto
            -2 vlineto
            -115 -98 70 -71 return
          </CharString>
          <CharString index="93">
            68 -67 rlineto
            13 hlineto
            29 13 19 31 10 187 callsubr
            -107 vlineto
            -63 29 -48 42 -32 vhcurveto
            -29 38 46 -16 43 hhcurveto
            return
          </CharString>
          <CharString index="94">
            -61 callsubr
            -103 callsubr
            -206 vlineto
            return
          </CharString>
          <CharString index="95">
            -39 12 callgsubr
            return
          </CharString>
          <CharString index="96">
            43 7 43 30 48 vvcurveto
            56 -56 36 -72 -51 -57 -19 -45 -22 vhcurveto
            23 -27 rlineto
            18 22 27 8 26 hhcurveto
            32 29 -13 -33 return
          </CharString>
          <CharString index="97">
            vlineto
            3 callgsubr
            return
          </CharString>
          <CharString index="98">
            260 hmoveto
            52 vlineto
            -38 -81 callgsubr
            56 vlineto
            48 47 8 -12 6 33 callgsubr
            -6 4 -6 13 rlinecurve
            -58 111 -17 33 -13 23 -17 20 rlinecurve
            67 66 12 11 7 2 20 4 rlinecurve
            42 11 rlineto
            49 -217 -49 vlineto
            67 -12 -135 -143 rlineto
            return
          </CharString>
          <CharString index="99">
            269 85 callsubr
            hintmask 10111000
            -11 callsubr
            hvcurveto
            hintmask 11011000
            -32 -27 -24 -60 vhcurveto
            -8 -45 hlineto
            hintmask 11010100
            84 callsubr
            endchar
          </CharString>
          <CharString index="100">
            rmoveto
            -107 callgsubr
            return
          </CharString>
          <CharString index="101">
            hhcurveto
            -12 -12 2 5 -12 hvcurveto
            1 8 1 8 9 vvcurveto
            56 -35 51 -43 34 vhcurveto
            26 -32 -45 23 -53 hhcurveto
            -47 -46 -18 -32 -38 hvcurveto
            68 -92 rlineto
            15 hlineto
            32 28 42 22 36 hhcurveto
            31 21 -16 -37 -43 -29 -44 -52 -16 hvcurveto
            42 -8 -20 14 -22 hhcurveto
            -23 -20 -13 -29 -19 hvcurveto
            -7 -9 rlineto
            263 callgsubr
            -16 vvcurveto
            -39 40 -17 50 -2 vhcurveto
            return
          </CharString>
          <CharString index="102">
            -10 8 -11 8 13 vvcurveto
            8 5 14 14 17 vhcurveto
            38 return
          </CharString>
          <CharString index="103">
            317 hmoveto
            52 vlineto
            -56 10 rlineto
            -12 199 callsubr
            103 vlineto
            58 69 12 -19 12 -24 17 -37 rlinecurve
            47 -101 rlineto
            -43 20 16 -29 21 hhcurveto
            159 52 hlineto
            -34 9 -17 4 -6 11 -5 10 rlinecurve
            -80 150 -28 51 -18 32 -28 34 rlinecurve
            121 138 6 6 7 3 9 2 rlinecurve
            58 11 rlineto
            55 -224 vlineto
            1 -55 rlineto
            return
          </CharString>
          <CharString index="104">
            rmoveto
            10 8 rlineto
            18 vlineto
            -21 21 -19 32 37 vvcurveto
            46 38 23 50 24 23 -6 -10 21 vhcurveto
            9 9 -29 74 rlineto
            17 -24 -37 7 -30 hhcurveto
            -84 -49 -56 -63 -28 8 -30 18 -27 hvcurveto
            -18 -28 -33 -19 callsubr
            return
          </CharString>
          <CharString index="105">
            hhcurveto
            -42 -16 17 22 40 53 21 70 -1 hvcurveto
            29 hlineto
            10 10 -25 83 -45 1 -30 1 -27 -3 -25 -5 rlinecurve
            -5 return
          </CharString>
          <CharString index="106">
            292 callsubr
            37 -40 72 -38 hvcurveto
            -55 -55 82 -70 70 71 rlineto
            33 -25 322 callsubr
            -17 vhcurveto
            63 -11 -22 26 -28 hhcurveto
            -15 -14 -4 -17 -22 hvcurveto
            -6 -5 rlineto
            -24 -18 -5 -16 -15 116 callgsubr
            -122 10 59 -71 97 hhcurveto
            return
          </CharString>
          <CharString index="107">
            hhcurveto
            -26 -33 8 24 -15 hvcurveto
            92 20 59 54 69 19 callsubr
            -42 -52 -50 42 -33 49 -11 hvcurveto
            28 31 rlineto
            -10 10 -6 13 13 vvcurveto
            25 20 16 23 22 15 -15 -23 -39 -45 -44 -91 -25 vhcurveto
            -15 -45 11 -28 19 -28 19 -22 rlinecurve
            36 -41 43 -21 49 -6 rrcurveto
            -3 vlineto
            return
          </CharString>
          <CharString index="108">
            381 279 rmoveto
            65 -29 61 -56 -16 -16 -5 -9 -15 vhcurveto
            -7 -4 rlineto
            -18 -12 -12 -17 -21 vvcurveto
            -22 15 -26 42 -29 vhcurveto
            -37 -13 -33 -18 -32 hhcurveto
            -38 -27 24 64 71 35 49 52 36 hvcurveto
            16 vlineto
            -98 55 rlineto
            -68 -55 -26 -71 -55 vvcurveto
            -64 35 -57 45 -41 vhcurveto
            -33 37 46 -24 51 hhcurveto
            57 54 32 60 23 hvcurveto
            return
          </CharString>
          <CharString index="109">
            61 43 40 56 22 -6 22 -15 20 hvcurveto
            1 return
          </CharString>
          <CharString index="110">
            hhcurveto
            -23 -27 8 22 -13 hvcurveto
            92 21 59 58 73 19 callsubr
            -43 -54 -51 42 -34 49 -11 hvcurveto
            28 31 rlineto
            -10 11 -6 13 15 vvcurveto
            26 20 17 23 22 15 -15 -23 -41 -45 -47 -91 -25 vhcurveto
            -15 -45 11 -30 20 -30 18 -22 rlinecurve
            -52 44 52 -21 59 hhcurveto
            return
          </CharString>
          <CharString index="111">
            33 -41 -45 15 -45 hhcurveto
            -50 -52 -19 -33 -36 hvcurveto
            65 -87 rlineto
            16 hlineto
            33 35 37 16 41 hhcurveto
            37 18 -13 -36 -53 -40 -47 -77 -17 hvcurveto
            47 -9 -21 15 -24 hhcurveto
            -24 -19 -15 -26 -18 hvcurveto
            -7 -10 rlineto
            -17 -24 -6 -23 -16 vvcurveto
            -39 40 -21 68 1 vhcurveto
            -103 17 59 -57 91 hhcurveto
            32 39 7 13 38 hvcurveto
            return
          </CharString>
          <CharString index="112">
            85 -7 158 -135 78 166 89 -9 -20 return
          </CharString>
          <CharString index="113">
            0 350 callsubr
            return
          </CharString>
          <CharString index="114">
            135 callsubr
            57 102 17 vhcurveto
            8 13 -55 80 rlineto
            -111 -4 -106 -88 -123 vvcurveto
            -122 99 -112 200 vhcurveto
            endchar
          </CharString>
          <CharString index="115">
            hmoveto
            11 49 5 67 55 vvcurveto
            -67 8 -34 -73 -4 -10 -8 -5 -13 -3 rlinecurve
            -4 -16 -32 -3 -28 hhcurveto
            -84 hlineto
            185 109 74 77 94 vvcurveto
            94 -73 58 -94 -96 -64 -53 -68 -28 vhcurveto
            39 -36 rlineto
            39 29 34 21 37 hhcurveto
            40 35 -25 -51 -68 -62 -62 -168 -142 hvcurveto
            24 -68 rlineto
            endchar
          </CharString>
          <CharString index="116">
            38 20 rmoveto
            -16 41 56 -16 62 hhcurveto
            105 78 43 86 79 -63 31 -70 30 hvcurveto
            return
          </CharString>
          <CharString index="117">
            vvcurveto
            56 -34 -74 callgsubr
            return
          </CharString>
          <CharString index="118">
            72 rmoveto
            -78 83 rlineto
            -48 -44 -52 -36 -49 hhcurveto
            -64 -39 57 73 86 61 72 130 73 hvcurveto
            -63 88 rlineto
            -138 -61 -96 -98 -117 vvcurveto
            -68 34 -64 43 -44 vhcurveto
            -45 43 61 -35 72 hhcurveto
            60 68 24 60 51 hvcurveto
            -31 204 rmoveto
            -68 83 -184 -136 rlineto
            -15 vlineto
            77 -57 rlineto
            endchar
          </CharString>
          <CharString index="119">
            424 rmoveto
            -113 -100 -100 -149 -8 -155 18 -20 rcurveline
            119 hlineto
            hintmask 10011000
            11 188 60 124 93 125 rrcurveto
            hintmask 10101000
            -30 65 rlineto
            -349 hlineto
            hintmask 11001000
            -7 -59 -3 -70 5 -62 rrcurveto
            67 hlineto
            hintmask 10101000
            32 86 5 12 4 4 13 3 rlinecurve
            5 16 33 3 31 hhcurveto
            endchar
          </CharString>
          <CharString index="120">
            107 rmoveto
            -34 -46 rlineto
            -45 36 66 -28 72 hhcurveto
            117 92 72 112 95 -65 61 -99 -35 -40 -8 -26 -31 hvcurveto
            16 114 rlineto
            215 hlineto
            11 94 rlineto
            -299 hlineto
            -20 -247 43 -28 rlineto
            12 25 24 11 28 hhcurveto
            53 32 -35 -53 -59 -41 -37 -58 -39 -39 17 24 -30 hvcurveto
            endchar
          </CharString>
          <CharString index="121">
            -62 33 -37 48 40 28 26 40 27 -14 18 -15 11 vhcurveto
            -14 9 -11 2 21 vvcurveto
            33 30 38 35 30 vhcurveto
            -25 31 rlineto
            -68 -33 -67 -70 -84 vvcurveto
            return
          </CharString>
          <CharString index="122">
            -96 callsubr
            -11 -2 vhcurveto
            -12 callsubr
            return
          </CharString>
          <CharString index="123">
            33 102 5 12 6 7 11 4 rlinecurve
            5 13 23 3 30 hhcurveto
            69 hlineto
            -304 -469 26 -45 rlineto
            return
          </CharString>
          <CharString index="124">
            rlinecurve
            -104 callsubr
            return
          </CharString>
          <CharString index="125">
            25 24 23 32 38 vvcurveto
            44 -30 35 -33 22 vhcurveto
            -10 6 -11 6 -11 5 rrcurveto
            116 vlineto
            -107 38 -10 -10 1 -135 -34 -7 -33 -17 -22 -27 rlinecurve
            34 -25 -42 25 -49 hhcurveto
            -78 -49 -60 -72 -88 75 -95 131 -67 hvcurveto
            33 48 rlineto
            -93 66 -29 53 45 vvcurveto
            43 26 27 33 vhcurveto
            return
          </CharString>
          <CharString index="126">
            vvcurveto
            46 -26 44 -39 30 vhcurveto
            24 -31 -38 15 -37 hhcurveto
            -65 -46 return
          </CharString>
          <CharString index="127">
            114 vlineto
            47 -12 28 -36 29 vhcurveto
            26 -30 -27 10 -39 hhcurveto
            -46 -40 -17 -69 -71 hvcurveto
            -116 -112 rlineto
            -33 20 -13 16 20 vvcurveto
            33 39 16 52 266 callsubr
            -67 -52 37 -41 74 -38 hvcurveto
            -67 -65 77 -74 85 83 rlineto
            return
          </CharString>
          <CharString index="128">
            489 -30 rmoveto
            44 -32 42 -95 33 vhcurveto
            -126 44 rlineto
            -47 16 -14 26 45 vvcurveto
            259 vlineto
            -104 38 -11 -10 rlineto
            -277 vlineto
            -97 59 -27 77 -27 vhcurveto
            126 -46 rlineto
            46 -16 5 -19 -13 vvcurveto
            -19 -14 -24 -31 -28 vhcurveto
            2 -14 95 -33 rlineto
            40 28 24 37 38 vvcurveto
            return
          </CharString>
          <CharString index="129">
            rlineto
            -4 -5 0 -4 hhcurveto
            -115 -1 -72 -8 -49 -12 -47 -10 -45 -17 -45 -21 rrcurveto
            -26 21 -12 16 18 33 callsubr
            -48 34 -37 54 -35 hvcurveto
            -26 -14 -27 -15 -27 -16 rrcurveto
            -15 vlineto
            58 -74 return
          </CharString>
          <CharString index="130">
            88 rmoveto
            218 hlineto
            hintmask 10011000
            -88 120 vlineto
            hintmask 00111000
            88 77 79 vlineto
            -77 -4 rlineto
            111 vlineto
            -106 -6 rlineto
            hintmask 10011000
            -13 -111 -141 -7 79 61 55 102 86 167 rlinecurve
            -18 23 rlineto
            -114 hlineto
            hintmask 01011000
            -59 -130 -62 -118 -71 -111 rrcurveto
            endchar
          </CharString>
          <CharString index="131">
            367 -2 rmoveto
            46 -32 29 -58 23 vhcurveto
            -44 17 rlineto
            -47 19 -11 15 56 vvcurveto
            276 vlineto
            -104 38 -11 -10 rlineto
            -294 vlineto
            -98 54 -18 53 -22 vhcurveto
            42 -19 rlineto
            34 -14 8 -15 -15 vvcurveto
            -19 -14 -23 -32 -29 vhcurveto
            3 -14 95 -33 rlineto
            40 29 24 36 39 vvcurveto
            return
          </CharString>
          <CharString index="132">
            -5 17 15 vvcurveto
            29 22 86 callgsubr
            return
          </CharString>
          <CharString index="133">
            vhcurveto
            18 28 33 6 25 hhcurveto
            47 21 -26 -36 -52 -42 -51 -66 -32 hvcurveto
            -5 -14 69 -78 rlineto
            return
          </CharString>
          <CharString index="134">
            67 -93 rlineto
            16 hlineto
            30 201 callgsubr
            30 21 -15 -35 236 callgsubr
            hvcurveto
            45 -10 -20 15 -24 -91 callsubr
            return
          </CharString>
          <CharString index="135">
            436 hmoveto
            52 vlineto
            -69 14 rlineto
            -12 199 callsubr
            136 vlineto
            return
          </CharString>
          <CharString index="136">
            200 callgsubr
            55 -35 51 -66 39 vhcurveto
            88 85 45 44 46 43 21 4 rlinecurve
            4 -7 6 -14 -39 vvcurveto
            -113 vlineto
            0 -1 0 0 -44 -21 -25 -28 -29 15 -19 24 -28 vhcurveto
            16 -19 rlineto
            -28 23 22 -10 25 hhcurveto
            32 22 23 37 hvcurveto
            34 return
          </CharString>
          <CharString index="137">
            -86 32 60 -36 79 hhcurveto
            37 36 8 10 25 hvcurveto
            6 15 -37 88 rlineto
            -16 -36 -36 -10 -28 hhcurveto
            -31 55 callsubr
            -47 24 -53 hhcurveto
            -62 -50 -35 -51 -12 hvcurveto
            -229 -116 rlineto
            return
          </CharString>
          <CharString index="138">
            282 rmoveto
            -29 -39 -19 -35 -42 vvcurveto
            -55 33 -41 39 -31 vhcurveto
            -30 37 48 -21 50 hhcurveto
            59 59 31 69 41 hvcurveto
            -71 71 rlineto
            -13 hlineto
            -56 -39 -40 -34 -39 hhcurveto
            -31 -21 21 38 35 18 30 22 29 hvcurveto
            175 233 -98 68 rlineto
            endchar
          </CharString>
          <CharString index="139">
            -107 callgsubr
            -256 vlineto
            return
          </CharString>
          <CharString index="140">
            vvcurveto
            33 40 134 callsubr
            -63 return
          </CharString>
          <CharString index="141">
            352 568 rlineto
            -86 hlineto
            -352 -568 rlineto
            return
          </CharString>
          <CharString index="142">
            -76 -25 46 108 hvcurveto
            231 hlineto
            return
          </CharString>
          <CharString index="143">
            -31 8 -38 -25 vvcurveto
            -46 -26 -43 -49 -53 -7 49 37 78 34 50 54 43 vhcurveto
            16 vlineto
            -97 59 rlineto
            -69 -61 -29 -73 -65 vvcurveto
            -70 36 -55 42 -38 vhcurveto
            -34 38 47 -25 54 hhcurveto
            80 53 55 89 hvcurveto
            37 -9 35 24 vvcurveto
            52 44 27 55 return
          </CharString>
          <CharString index="144">
            -46 -107 callsubr
            -2 -61 callsubr
            264 vlineto
            74 -14 44 -12 45 vhcurveto
            -9 31 -6 31 24 vvcurveto
            45 35 21 40 19 27 -4 -10 22 vhcurveto
            9 9 -28 74 rlineto
            17 -24 -37 7 -29 hhcurveto
            return
          </CharString>
          <CharString index="145">
            47 -17 40 -33 27 vhcurveto
            22 -27 -34 12 -29 hhcurveto
            -38 -45 -22 -51 -33 hvcurveto
            76 -59 rlineto
            12 hlineto
            40 24 14 12 8 hhcurveto
            7 1 -12 -13 hvcurveto
            -53 vlineto
            -179 3 rlineto
            -110 2 -76 -50 -86 vvcurveto
            -76 63 -100 105 -82 vhcurveto
            endchar
          </CharString>
          <CharString index="146">
            309 callsubr
            hintmask 10111000
            -46 -107 callsubr
            -2 -61 callsubr
            return
          </CharString>
          <CharString index="147">
            -11 -201 59 136 85 58 52 141 96 -51 50 -6 -20 return
          </CharString>
          <CharString index="148">
            -57 -16 -15 -5 -9 -16 vhcurveto
            -7 -4 rlineto
            -18 -11 -12 -18 -20 vvcurveto
            return
          </CharString>
          <CharString index="149">
            234 17 rmoveto
            -58 70 -30 60 50 vvcurveto
            49 28 22 85 1 vhcurveto
            35 1 50 -1 45 -3 rrcurveto
            -36 vlineto
            0 -1 0 0 -56 -18 -23 -28 -25 15 -19 28 -27 vhcurveto
            20 -19 rlineto
            -27 28 23 -11 23 hhcurveto
            34 22 24 37 hvcurveto
            33 return
          </CharString>
          <CharString index="150">
            212 vlineto
            19 23 23 6 17 hhcurveto
            17 7 -4 -18 6 hvcurveto
            13 -42 rlineto
            57 hlineto
            return
          </CharString>
          <CharString index="151">
            rmoveto
            46 -25 42 -31 28 vhcurveto
            32 -35 -41 13 -37 hhcurveto
            -68 -55 -44 -70 -55 33 -46 50 -35 hvcurveto
            -40 -22 -44 -19 -42 -16 51 -91 rcurveline
            77 33 63 30 46 31 32 -10 34 -7 34 -4 rrcurveto
            -4 vlineto
            -187 -114 70 -90 return
          </CharString>
          <CharString index="152">
            hhcurveto
            -26 -26 8 22 -12 hvcurveto
            91 21 60 58 73 19 callsubr
            -43 -54 -51 42 -34 48 -11 hvcurveto
            29 31 rlineto
            -10 11 -6 13 15 vvcurveto
            26 20 17 23 22 14 -15 -23 vhcurveto
            return
          </CharString>
          <CharString index="153">
            -91 rlineto
            14 hlineto
            20 22 25 11 return
          </CharString>
          <CharString index="154">
            400 292 rmoveto
            94 callgsubr
            -29 vvcurveto
            -75 -26 -45 -41 -24 -7 21 25 vhcurveto
            121 228 callgsubr
            return
          </CharString>
          <CharString index="155">
            181 callgsubr
            36 -41 73 -37 hvcurveto
            -67 -68 81 -70 81 83 rlineto
            27 -19 15 -20 -26 vvcurveto
            -51 -57 -20 -44 -49 -61 24 193 callsubr
            return
          </CharString>
          <CharString index="156">
            180 -3 106 110 202 vvcurveto
            187 -92 82 -185 vhcurveto
            -42 -39 -4 -49 hhcurveto
            71 -509 rmoveto
            453 vlineto
            1 4 20 6 25 hhcurveto
            99 37 -88 -149 -175 -49 -55 -84 -1 hvcurveto
            -17 -23 2 6 -12 hvcurveto
            return
          </CharString>
          <CharString index="157">
            53 -57 -65 17 -58 hhcurveto
            -88 -62 -40 -71 -23 6 -28 11 -21 hvcurveto
            103 156 callsubr
            21 vvcurveto
            36 20 29 59 99 49 -60 -158 vhcurveto
            -293 -33 callgsubr
            return
          </CharString>
          <CharString index="158">
            rmoveto
            25 59 23 80 10 69 -97 11 rcurveline
            -15 -208 rlineto
            endchar
          </CharString>
          <CharString index="159">
            503 rmoveto
            hintmask 10110000
            -65 11 -35 -30 -73 -37 -58 -14 rlinecurve
            9 -54 rlineto
            27 46 5 4 22 hvcurveto
            -304 vlineto
            -12 -6 -7 -12 -1 vhcurveto
            -86 -13 rlineto
            -51 318 51 vlineto
            -70 12 168 callsubr
            endchar
          </CharString>
          <CharString index="160">
            -39 -37 -6 -12 -34 hvcurveto
            -12 17 -6 17 14 vvcurveto
            30 23 6 41 12 vhcurveto
            36 11 40 14 39 vvcurveto
            31 -26 29 -35 22 vhcurveto
            -28 -14 -4 -40 -40 -5 -37 -13 rlinecurve
            -47 -17 -29 -26 -45 vvcurveto
            -44 28 -37 43 -26 vhcurveto
            return
          </CharString>
          <CharString index="161">
            hhcurveto
            -17 -16 1 3 -15 hvcurveto
            3 vlineto
            39 20 21 32 37 vvcurveto
            45 -31 44 -36 29 vhcurveto
            27 -32 -38 16 -38 hhcurveto
            return
          </CharString>
          <CharString index="162">
            -26 12 25 -20 hvcurveto
            94 24 91 63 101 vvcurveto
            60 -32 56 -48 39 vhcurveto
            28 -34 return
          </CharString>
          <CharString index="163">
            32 0 59 195 70 188 56 return
          </CharString>
          <CharString index="164">
            57 0 80 393 97 0 -20 hstemhm
            22 509 hintmask 10110000
            507 hmoveto
            24 62 -190 508 rlineto
            -129 hlineto
            -190 -508 24 -62 rlineto
            62 80 rmoveto
            hintmask 11010000
            136 393 138 -393 rlineto
            endchar
          </CharString>
          <CharString index="165">
            -93 callgsubr
            hintmask 1001101110000000
            -107 callgsubr
            return
          </CharString>
          <CharString index="166">
            32 -14 29 -20 25 -25 rrcurveto
            -59 -65 -34 -56 -60 69 callsubr
            69 -38 73 -42 57 hvcurveto
            5 5 5 5 5 5 rrcurveto
            56 55 57 35 49 hhcurveto
            return
          </CharString>
          <CharString index="167">
            41 42 40 20 32 hhcurveto
            26 30 -11 -32 38 hvcurveto
            -196 -114 71 -91 return
          </CharString>
          <CharString index="168">
            7 -9 6 -16 -11 vvcurveto
            -27 -31 -15 -45 -23 vhcurveto
            return
          </CharString>
          <CharString index="169">
            -69 72 -45 33 -51 -88 52 -23 96 -24 -96 -24 -52 -22 51 -88 45 33 69 72 -27 -96 -7 -56 rlineto
            103 hlineto
            -7 56 -27 96 69 -72 45 -33 51 88 -52 22 -96 24 96 24 52 23 -51 88 return
          </CharString>
          <CharString index="170">
            -161 rmoveto
            -19 145 callgsubr
            34 38 36 57 16 hvcurveto
            -47 10 -37 -13 rlineto
            -64 -22 -47 -41 -50 vvcurveto
            -51 43 -25 58 -1 vhcurveto
            35 41 10 18 29 hvcurveto
            endchar
          </CharString>
          <CharString index="171">
            165 368 rmoveto
            38 28 22 30 26 13 -16 -24 -33 -25 -29 -45 -17 vhcurveto
            -17 16 -10 20 23 vvcurveto
            return
          </CharString>
          <CharString index="172">
            -54 34 -46 53 -35 vhcurveto
            -40 -22 -47 -20 -43 -17 51 -90 rcurveline
            81 35 63 33 46 33 13 -3 13 -3 13 -2 rrcurveto
            -11 -16 -6 -18 -20 vvcurveto
            -34 19 -41 38 -33 vhcurveto
            -27 31 42 -20 45 hhcurveto
            return
          </CharString>
          <CharString index="173">
            -42 88 -24 -4 -25 -7 -23 -9 rlinecurve
            -10 16 -4 16 10 vvcurveto
            24 17 10 35 14 vhcurveto
            33 14 54 20 53 vvcurveto
            36 -17 28 -26 28 vhcurveto
            39 -35 -30 10 -37 hhcurveto
            -24 -31 -7 -17 -27 hvcurveto
            return
          </CharString>
          <CharString index="174">
            hhcurveto
            -30 -19 12 22 -10 hvcurveto
            57 16 47 44 65 vvcurveto
            49 -33 40 -19 20 vhcurveto
            40 -38 -42 14 -37 hhcurveto
            -84 -70 -57 -59 -58 hvcurveto
            67 -69 -84 49 -87 129 callgsubr
            return
          </CharString>
          <CharString index="175">
            -55 hlineto
            59 -12 rlineto
            9 -1 6 -7 -9 vvcurveto
            -403 vlineto
            -9 -6 -7 -9 -2 vhcurveto
            -59 -11 rlineto
            -52 return
          </CharString>
          <CharString index="176">
            83 callsubr
            81 return
          </CharString>
          <CharString index="177">
            72 -35 48 -37 36 vhcurveto
            37 -37 -41 17 -42 hhcurveto
            -61 -64 -43 -87 hvcurveto
            return
          </CharString>
          <CharString index="178">
            hstemhm
            228 93 52 107 83 115 return
          </CharString>
          <CharString index="179">
            35 callgsubr
            19 hhcurveto
            17 9 -9 -19 -31 -24 -32 -68 -12 hvcurveto
            -200 -32 -10 -12 27 -88 189 34 9 -16 10 -16 11 -14 rlinecurve
            -41 33 49 -34 69 hhcurveto
            return
          </CharString>
          <CharString index="180">
            167 callsubr
            64 19 36 48 -2 46 -1 41 -31 39 -28 25 rrcurveto
            37 -40 -52 27 -77 hhcurveto
            -81 -82 -30 -44 -38 hvcurveto
            -20 -21 -4 -20 -9 vvcurveto
            -19 14 -14 23 -22 vhcurveto
            return
          </CharString>
          <CharString index="181">
            38 11 46 15 38 vvcurveto
            29 -26 31 -35 21 vhcurveto
            -28 -13 -4 -37 -59 -18 -25 -8 rlinecurve
            -49 -17 -35 -23 -47 vvcurveto
            -51 42 -29 49 -13 vhcurveto
            34 -10 rlineto
            20 -5 6 -4 -23 vvcurveto
            -28 vlineto
            return
          </CharString>
          <CharString index="182">
            rmoveto
            -59 36 -60 62 -46 vhcurveto
            39 35 rlineto
            -27 31 -14 31 32 vvcurveto
            44 35 26 44 18 29 -5 -10 22 vhcurveto
            8 10 -28 74 rlineto
            16 -24 -37 8 -30 hhcurveto
            -79 -54 -54 -73 hvcurveto
            endchar
          </CharString>
          <CharString index="183">
            40 118 callsubr
          </CharString>
          <CharString index="184">
            hhcurveto
            -32 -18 14 20 -9 hvcurveto
            56 16 45 48 56 vvcurveto
            42 -24 39 -25 26 vhcurveto
            39 -37 -50 22 -56 hhcurveto
            -93 -83 -61 -95 -8 hvcurveto
            6 -18 -19 3 -20 hhcurveto
            -31 -31 -8 -14 -26 hvcurveto
            return
          </CharString>
          <CharString index="185">
            15 13 -5 -12 13 hvcurveto
            -1 -8 -1 -9 -10 vvcurveto
            -19 4 -17 3 -9 vhcurveto
            96 -40 13 9 rlineto
            -8 20 -3 20 15 vvcurveto
            49 34 36 40 25 14 -14 -20 -17 -10 -24 -29 -29 vhcurveto
            return
          </CharString>
          <CharString index="186">
            15 -24 -28 callsubr
            20 callgsubr
            42 -17 59 vhcurveto
            return
          </CharString>
          <CharString index="187">
            -65 -9 80 154 48 98 53 return
          </CharString>
          <CharString index="188">
            17 callsubr
            hintmask 10101011
            -107 callgsubr
            return
          </CharString>
          <CharString index="189">
            317 -3 rmoveto
            6 15 -33 89 rlineto
            -4 -11 -16 -2 -11 hhcurveto
            -26 -31 16 50 -10 hvcurveto
            62 10 62 31 33 48 rrcurveto
            -29 26 33 -14 38 hhcurveto
            5 6 0 1 6 hvcurveto
            -2 vlineto
            return
          </CharString>
          <CharString index="190">
            vvcurveto
            -51 28 -44 33 -31 vhcurveto
            -29 31 41 -23 355 callsubr
            return
          </CharString>
          <CharString index="191">
            37 hlineto
            50 25 -15 -32 -34 -28 -20 -45 -34 -35 11 14 -22 hvcurveto
            return
          </CharString>
          <CharString index="192">
            rmoveto
            -30 31 47 -18 59 hhcurveto
            100 57 50 59 61 -56 28 -55 hvcurveto
            return
          </CharString>
          <CharString index="193">
            rmoveto
            217 -166 37 44 -115 151 115 152 -37 46 -217 -169 rlineto
            return
          </CharString>
          <CharString index="194">
            -33 callsubr
            7 0 -16 -9 hvcurveto
            -115 vlineto
            -54 18 -46 39 -39 vhcurveto
            25 -23 32 -19 36 -9 rrcurveto
            -5 vlineto
            -136 -114 71 -73 return
          </CharString>
          <CharString index="195">
            135 380 rmoveto
            25 25 33 22 34 hhcurveto
            47 23 -40 -53 -90 -62 -38 -55 -46 -43 24 61 -50 hvcurveto
            -43 -32 rlineto
            -91 46 83 -59 93 hhcurveto
            79 69 42 75 24 hvcurveto
            return
          </CharString>
          <CharString index="196">
            rmoveto
            -45 -1 30 -31 40 hhcurveto
            31 22 21 28 20 -9 10 -10 8 hvcurveto
            -7 5 -9 6 15 vvcurveto
            15 16 17 17 12 vhcurveto
            -28 31 -50 -23 -40 -38 -2 -51 rlinecurve
            endchar
          </CharString>
          <CharString index="197">
            rmoveto
            -40 -32 -38 -43 -32 -19 19 33 43 35 35 40 33 18 -22 -30 vhcurveto
            84 -29 rmoveto
            86 -76 77 -86 -72 -61 -55 -77 -86 78 -75 86 73 58 55 75 vhcurveto
            endchar
          </CharString>
          <CharString index="198">
            -116 -119 rlineto
            endchar
          </CharString>
          <CharString index="199">
            52 -90 rlineto
            19 25 24 12 20 hhcurveto
            17 7 -8 -9 -23 -44 -11 -34 -13 hvcurveto
            -40 -14 -46 -26 -53 vvcurveto
            -35 21 -33 40 -20 vhcurveto
            -1 -2 -164 -24 19 -94 rlineto
            return
          </CharString>
          <CharString index="200">
            35 callgsubr
            19 hhcurveto
            17 9 -9 -16 -30 -21 -29 -52 -15 hvcurveto
            33 -65 -68 20 -61 hhcurveto
            -104 -77 -54 -87 -76 58 -98 107 -83 hvcurveto
            endchar
          </CharString>
          <CharString index="201">
            155 callsubr
            -16 2 -13 hhcurveto
            return
          </CharString>
          <CharString index="202">
            -34 -15 -21 -25 -38 vvcurveto
            -30 13 -25 34 -14 vhcurveto
            return
          </CharString>
          <CharString index="203">
            23 -26 219 callsubr
            -45 -42 -31 -42 -28 hvcurveto
            return
          </CharString>
          <CharString index="204">
            29 38 6 14 34 hvcurveto
            return
          </CharString>
          <CharString index="205">
            45 -10 -20 15 -23 57 callgsubr
            -7 -10 rlineto
            -16 -24 -6 -21 -17 vvcurveto
            -40 41 -17 59 vhcurveto
            4 4 0 4 hhcurveto
            -109 14 53 -54 89 hhcurveto
            return
          </CharString>
          <CharString index="206">
            -224 709 rmoveto
            45 -53 -41 19 -52 hhcurveto
            -38 -52 -73 callgsubr
            35 42 rlineto
            return
          </CharString>
          <CharString index="207">
            hhcurveto
            -44 -26 24 41 59 52 26 54 28 hvcurveto
            50 25 46 25 52 vvcurveto
            42 -28 34 -42 35 vhcurveto
            -52 -28 rlineto
            61 callsubr
            return
          </CharString>
          <CharString index="208">
            rmoveto
            -38 21 rlineto
            -26 -17 -20 -18 -23 hhcurveto
            return
          </CharString>
          <CharString index="209">
            357 570 rmoveto
            -129 hlineto
            return
          </CharString>
          <CharString index="210">
            12 11 -29 82 rlineto
            4 -17 -19 1 -19 hhcurveto
            -132 -46 -85 -69 -52 26 -54 41 -41 hvcurveto
            38 -37 46 -23 55 -3 rrcurveto
            -2 vlineto
            -128 -124 78 -68 return
          </CharString>
          <CharString index="211">
            -69 callsubr
            endchar
          </CharString>
          <CharString index="212">
            -46 -49 50 -58 hhcurveto
            -50 -50 -38 -67 -27 hvcurveto
            36 -28 rlineto
            24 21 25 20 29 hhcurveto
            return
          </CharString>
          <CharString index="213">
            rmoveto
            -69 callsubr
            return
          </CharString>
          <CharString index="214">
            56 46 callsubr
            19 hhcurveto
            17 9 -9 -16 -32 -35 -35 -68 -19 hvcurveto
            -19 -53 331 callgsubr
            rlinecurve
            -42 35 46 -30 68 hhcurveto
            return
          </CharString>
          <CharString index="215">
            hhcurveto
            -34 -21 17 25 -7 hvcurveto
            63 20 36 40 55 vvcurveto
            42 -21 43 -40 34 vhcurveto
            25 -30 -44 23 -47 hhcurveto
            -55 -56 -31 -55 -54 hvcurveto
            -112 -112 rlineto
            return
          </CharString>
          <CharString index="216">
            -16 25 -10 27 30 vvcurveto
            52 31 22 43 23 25 -6 -11 23 vhcurveto
            8 10 -28 74 rlineto
            20 -27 -38 8 -25 hhcurveto
            -55 -49 -41 -72 1 hvcurveto
            -8 12 rlineto
            return
          </CharString>
          <CharString index="217">
            68 -67 rlineto
            13 hlineto
            283 callgsubr
            9 187 callsubr
            -107 vlineto
            -63 29 -48 43 -32 vhcurveto
            -29 37 47 -16 42 hhcurveto
            55 45 28 60 21 hvcurveto
            return
          </CharString>
          <CharString index="218">
            hhcurveto
            9 9 1 2 10 hvcurveto
            2 -3 2 -3 2 -2 rrcurveto
            return
          </CharString>
          <CharString index="219">
            281 415 rmoveto
            31 40 -9 -14 35 hvcurveto
            10 12 -24 92 rlineto
            14 -38 -52 5 -32 hhcurveto
            -106 -55 -47 -64 -35 17 -29 23 -23 hvcurveto
            -1 -4 rlineto
            return
          </CharString>
          <CharString index="220">
            rmoveto
            -144 4 -48 68 71 vvcurveto
            77 54 53 100 17 vhcurveto
            8 13 -55 80 rlineto
            -111 -4 -106 -88 -124 vvcurveto
            -120 99 -113 200 vhcurveto
            return
          </CharString>
          <CharString index="221">
            39 134 callsubr
            -64 return
          </CharString>
          <CharString index="222">
            hstemhm
            30 96 -56 95 48 158 -109 100 return
          </CharString>
          <CharString index="223">
            vlineto
            -79 callsubr
            return
          </CharString>
          <CharString index="224">
            -107 callgsubr
            -245 vlineto
            -49 -37 -52 -22 return
          </CharString>
          <CharString index="225">
            41 20 34 33 hvcurveto
            endchar
          </CharString>
          <CharString index="226">
            hhcurveto
            -6 -5 1 2 -6 hvcurveto
            6 14 3 16 17 vvcurveto
            56 -35 51 -39 33 vhcurveto
            30 -35 -46 20 -54 hhcurveto
            -120 -140 -102 -95 -103 hvcurveto
            return
          </CharString>
          <CharString index="227">
            57 46 callsubr
            18 hhcurveto
            17 10 -9 -16 -27 -25 -29 -49 -21 hvcurveto
            -9 -22 -20 -4 -19 hhcurveto
            -8 -7 1 1 -6 hvcurveto
            return
          </CharString>
          <CharString index="228">
            35 callgsubr
            20 hhcurveto
            18 8 -10 -21 -76 -100 -40 -94 hvcurveto
            -3 -4 0 -3 hhcurveto
            4 vlineto
            19 18 16 22 32 vvcurveto
            return
          </CharString>
          <CharString index="229">
            339 12 rmoveto
            -62 68 -25 55 46 vvcurveto
            39 21 33 78 25 25 -3 -7 25 vhcurveto
            12 -23 14 -23 15 -20 rrcurveto
            -41 33 49 -34 69 hhcurveto
            return
          </CharString>
          <CharString index="230">
            rmoveto
            -46 25 rlineto
            -44 -26 -32 -19 -39 hhcurveto
            -38 -32 19 44 -23 hvcurveto
            -52 -25 rlineto
            -70 15 52 -52 74 hhcurveto
            74 53 49 73 20 hvcurveto
            endchar
          </CharString>
          <CharString index="231">
            164 callgsubr
            128 128 -82 135 return
          </CharString>
          <CharString index="232">
            -112 11 52 -78 102 hhcurveto
            29 34 6 15 32 hvcurveto
            return
          </CharString>
          <CharString index="233">
            vlineto
            -66 callgsubr
            return
          </CharString>
          <CharString index="234">
            170 callsubr
            196 callsubr
            -67 return
          </CharString>
          <CharString index="235">
            7 12 -48 89 rlineto
            -11 -20 -25 -9 -26 hhcurveto
            -38 -30 return
          </CharString>
          <CharString index="236">
            60 hlineto
            62 50 17 42 32 30 -4 return
          </CharString>
          <CharString index="237">
            -61 -32 -40 -49 -53 vvcurveto
            -43 26 -39 26 -25 vhcurveto
            -36 37 49 -19 52 313 callsubr
            8 hvcurveto
            47 -145 14 -4 rlineto
            endchar
          </CharString>
          <CharString index="238">
            26 -15 -16 17 -24 hhcurveto
            -23 -20 -16 -21 -11 hvcurveto
            -5 -9 rlineto
            -9 -17 -7 -21 -16 vvcurveto
            -37 36 -21 55 10 11 1 1 10 vhcurveto
            return
          </CharString>
          <CharString index="239">
            hhcurveto
            -19 -22 5 20 -20 hvcurveto
            62 26 41 45 58 vvcurveto
            55 -37 43 -16 16 vhcurveto
            36 -35 -40 18 -41 7 callgsubr
            return
          </CharString>
          <CharString index="240">
            hhcurveto
            -27 -23 11 31 -13 hvcurveto
            61 14 46 42 60 vvcurveto
            50 -33 40 -20 20 vhcurveto
            39 -38 -40 15 -38 7 callgsubr
            return
          </CharString>
          <CharString index="241">
            -69 callgsubr
            -47 return
          </CharString>
          <CharString index="242">
            rmoveto
            -143 4 -49 65 77 vvcurveto
            70 52 return
          </CharString>
          <CharString index="243">
            -24 -167 -21 209 -21 363 51 return
          </CharString>
          <CharString index="244">
            112 111 107 110 return
          </CharString>
          <CharString index="245">
            -146 153 callsubr
            return
          </CharString>
          <CharString index="246">
            6 7 11 2 vhcurveto
            return
          </CharString>
          <CharString index="247">
            -74 -27 -45 -39 -25 -7 20 26 vhcurveto
            121 vlineto
            128 callgsubr
            -43 -31 -42 -28 hvcurveto
            return
          </CharString>
          <CharString index="248">
            -107 callgsubr
            -247 vlineto
            return
          </CharString>
          <CharString index="249">
            11 56 27 35 39 rrcurveto
            -25 22 27 -17 39 hhcurveto
            return
          </CharString>
          <CharString index="250">
            102 callgsubr
            -27 97 91 105 return
          </CharString>
          <CharString index="251">
            -96 56 -75 59 -47 vhcurveto
            -42 54 72 -33 88 hhcurveto
            return
          </CharString>
          <CharString index="252">
            -67 34 -58 46 -42 vhcurveto
            -34 38 47 -25 55 hhcurveto
            return
          </CharString>
          <CharString index="253">
            -40 -18 -25 -30 -38 vvcurveto
            -43 34 -45 32 -29 vhcurveto
            return
          </CharString>
          <CharString index="254">
            -35 -37 -10 -11 -30 hvcurveto
            return
          </CharString>
          <CharString index="255">
            53 0 51 -7 51 rrcurveto
            return
          </CharString>
          <CharString index="256">
            5 vlineto
            33 -8 18 -17 17 vhcurveto
            -21 24 -23 4 -29 5 -17 4 rcurveline
            -29 5 -15 11 15 vvcurveto
            18 23 8 48 16 vhcurveto
            return
          </CharString>
          <CharString index="257">
            -2 -2 0 -2 hhcurveto
            -5 68 -32 55 -51 41 rrcurveto
            28 -36 -46 20 -53 hhcurveto
            -42 204 callgsubr
          </CharString>
          <CharString index="258">
            -22 30 -12 29 33 vvcurveto
            45 33 25 41 18 27 -4 -11 22 vhcurveto
            9 10 -28 74 rlineto
            16 -24 -38 8 -28 hhcurveto
            endchar
          </CharString>
          <CharString index="259">
            -31 -49 -51 -4 callgsubr
            return
          </CharString>
          <CharString index="260">
            0 246 callgsubr
            return
          </CharString>
          <CharString index="261">
            243 -245 rmoveto
            -22 -12 19 30 51 24 43 37 44 hvcurveto
            19 -36 11 -37 -31 326 callsubr
          </CharString>
          <CharString index="262">
            vhcurveto
            11 11 170 callsubr
            return
          </CharString>
          <CharString index="263">
            -36 9 12 rlineto
            -8 14 -7 21 return
          </CharString>
          <CharString index="264">
            370 callgsubr
            -212 594 return
          </CharString>
          <CharString index="265">
            32 9 12 27 hvcurveto
            endchar
          </CharString>
          <CharString index="266">
            hhcurveto
            -60 -26 -28 -36 -17 5 -16 20 -27 hvcurveto
            7 -9 rlineto
            -29 21 21 -20 28 hhcurveto
            28 24 22 35 hvcurveto
            28 vlineto
            return
          </CharString>
          <CharString index="267">
            -23 8 callgsubr
            hvcurveto
            return
          </CharString>
          <CharString index="268">
            -40 85 rlineto
            -12 hlineto
            -32 -47 rlineto
            -10 -8 -5 -6 -4 hhcurveto
            -6 return
          </CharString>
          <CharString index="269">
            103 60 86 337 97 hstem
            119 317 callgsubr
            vstem
            return
          </CharString>
          <CharString index="270">
            99 93.5 68.5 return
          </CharString>
          <CharString index="271">
            208 -56 56 278 callgsubr
            return
          </CharString>
          <CharString index="272">
            -8 -75 3 -58 8 -75 rrcurveto
            67 hlineto
            return
          </CharString>
          <CharString index="273">
            71 -44 -21 240 60 230 55 return
          </CharString>
          <CharString index="274">
            hhcurveto
            -33 -22 17 25 -6 hvcurveto
            return
          </CharString>
          <CharString index="275">
            rlineto
            -11 2 336 callgsubr
            return
          </CharString>
          <CharString index="276">
            85 -12 56 479 57 return
          </CharString>
          <CharString index="277">
            -31 83 rlineto
            1 -10 return
          </CharString>
          <CharString index="278">
            659 396 rmoveto
            -29 -32 -35 -61 -19 vhcurveto
            -18 -53 15 -31 18 -30 22 -25 rlinecurve
            -42 34 50 -30 64 hhcurveto
            return
          </CharString>
          <CharString index="279">
            243 -245 rmoveto
            -22 -12 19 30 44 25 38 44 40 hvcurveto
            14 -30 8 -31 -27 243 callgsubr
            return
          </CharString>
          <CharString index="280">
            0 153.5 -65.5 65.5 -65.5 77 315 23 hstemhm
            return
          </CharString>
          <CharString index="281">
            -20 -42 -22 -31 -25 rlinecurve
            -34 -27 -20 -28 -36 vvcurveto
            -54 48 -27 51 -19 vhcurveto
            56 -21 27 -10 -28 vvcurveto
            -33 return
          </CharString>
          <CharString index="282">
            154 367 rmoveto
            39 30 23 29 19 21 -11 -29 -31 -24 -30 -37 -28 vhcurveto
            -26 18 -12 25 24 vvcurveto
            return
          </CharString>
          <CharString index="283">
            hhcurveto
            -51 -18 -27 -28 -19 8 -17 17 -22 hvcurveto
            30 -39 rlineto
            -30 24 19 -13 24 hhcurveto
            33 23 25 41 hvcurveto
            return
          </CharString>
          <CharString index="284">
            -143 69 rmoveto
            -43 26 -36 27 -23 vhcurveto
            -25 32 38 -13 40 hhcurveto
            23 19 4 4 14 hvcurveto
            3 -3 rlineto
            return
          </CharString>
          <CharString index="285">
            vstem
            283 193 223 callsubr
            return
          </CharString>
          <CharString index="286">
            165 370 rmoveto
            34 27 24 31 26 13 -16 -23 -33 -25 -27 -37 -17 vhcurveto
            -21 15 -14 19 24 vvcurveto
            return
          </CharString>
          <CharString index="287">
            195 callgsubr
            -49 -17 -27 -27 -43 vvcurveto
            return
          </CharString>
          <CharString index="288">
            -6 callgsubr
            6 -7 return
          </CharString>
          <CharString index="289">
            46 -30 43 -37 30 vhcurveto
            27 -32 -38 16 -38 hhcurveto
            -62 -55 -43 -71 -46 23 -41 38 -34 hvcurveto
            -3 vlineto
            return
          </CharString>
          <CharString index="290">
            152 114 rmoveto
            30 -23 28 -29 -30 -18 -26 -27 -31 26 -24 27 26 21 21 29 vhcurveto
            endchar
          </CharString>
          <CharString index="291">
            261 39 rmoveto
            -86 90 -34 80 72 vvcurveto
            return
          </CharString>
          <CharString index="292">
            93 175 86 3 356 callsubr
            return
          </CharString>
          <CharString index="293">
            87 111 135 107 return
          </CharString>
          <CharString index="294">
            hhcurveto
            7 0 -16 -9 hvcurveto
            return
          </CharString>
          <CharString index="295">
            -2 5 0 3 4 vvcurveto
            38 22 25 22 12 5 -7 -10 -20 -19 -24 -15 -18 vhcurveto
            hintmask 1100110100000000
            return
          </CharString>
          <CharString index="296">
            66 vvcurveto
            37 -22 41 -38 30 vhcurveto
            27 -35 -47 17 -57 hhcurveto
            -47 -53 -12 -24 -39 hvcurveto
            51 -89 rlineto
            return
          </CharString>
          <CharString index="297">
            86 70 170 -129 83 143 97 -91 91 hstemhm
            197 callsubr
            273 97 return
          </CharString>
          <CharString index="298">
            120 85 rmoveto
            30 -22 27 -29 -28 -18 -26 -26 -31 25 -23 27 25 20 21 28 vhcurveto
            endchar
          </CharString>
          <CharString index="299">
            -39 -38 -6 -12 -33 hvcurveto
            -13 17 -5 17 15 vvcurveto
            29 return
          </CharString>
          <CharString index="300">
            -66 callsubr
            110 hhcurveto
            return
          </CharString>
          <CharString index="301">
            53 0 52 447 -20 34 55 return
          </CharString>
          <CharString index="302">
            11 168 callsubr
            return
          </CharString>
          <CharString index="303">
            81 callgsubr
            -60 -46 return
          </CharString>
          <CharString index="304">
            95 112 132 111 return
          </CharString>
          <CharString index="305">
            -107 23 rlineto
            -23 -45 -7 -44 return
          </CharString>
          <CharString index="306">
            2 -6 6 11 vvcurveto
            return
          </CharString>
          <CharString index="307">
            61 38 17 32 30 return
          </CharString>
          <CharString index="308">
            -6 -6 -11 -2 vhcurveto
            return
          </CharString>
          <CharString index="309">
            220 callgsubr
            4 35 return
          </CharString>
          <CharString index="310">
            -41 -54 17 52 -55 vhcurveto
            -38 -38 rlineto
            -67 45 82 -57 99 hhcurveto
            100 71 48 78 hvcurveto
            endchar
          </CharString>
          <CharString index="311">
            hstemhm
            80 121 -105 115 hintmask 10010000
            324 -97 rmoveto
            -47 11 rlineto
            -56 13 -20 25 54 return
          </CharString>
          <CharString index="312">
            35 14 35 11 35 8 4 -3 rcurveline
            -3 -10 -1 -11 -11 vvcurveto
            -76 58 -100 106 -82 vhcurveto
            return
          </CharString>
          <CharString index="313">
            vvcurveto
            33 42 16 49 266 callsubr
            -66 return
          </CharString>
          <CharString index="314">
            90 91 rlineto
            39 39 47 35 43 hhcurveto
            27 18 -14 -24 -30 -28 -30 -57 -14 hvcurveto
            -17 -50 return
          </CharString>
          <CharString index="315">
            -76 62 -100 106 -82 vhcurveto
            42 41 rlineto
            -58 70 -30 59 51 vvcurveto
            51 30 23 83 1 vhcurveto
            return
          </CharString>
          <CharString index="316">
            rmoveto
            2 61 rlineto
            -95 -7 -44 40 52 vvcurveto
            50 46 42 79 20 vhcurveto
            8 9 -47 84 rlineto
            return
          </CharString>
          <CharString index="317">
            554 115 rmoveto
            -36 -21 -29 -22 -21 hhcurveto
            -13 -9 8 13 26 32 21 26 26 hvcurveto
            return
          </CharString>
          <CharString index="318">
            -163 2 rmoveto
            32 17 15 30 32 14 -21 -30 -32 -16 -15 -30 -32 -15 23 28 vhcurveto
            return
          </CharString>
          <CharString index="319">
            -200 1 rmoveto
            74 15 31 30 33 18 -38 -79 -75 -15 -31 -30 -33 -18 38 80 vhcurveto
            return
          </CharString>
          <CharString index="320">
            29 hvcurveto
            114 callgsubr
            return
          </CharString>
          <CharString index="321">
            17 -22 hvcurveto
            31 -39 rlineto
            -30 23 19 -13 24 hhcurveto
            return
          </CharString>
          <CharString index="322">
            -12 341 callsubr
            return
          </CharString>
          <CharString index="323">
            hstemhm
            35 71 -70 122 91 131 return
          </CharString>
          <CharString index="324">
            -20 hstemhm
            28 107 -98 104 return
          </CharString>
          <CharString index="325">
            48 -17 39 -32 26 vhcurveto
            return
          </CharString>
          <CharString index="326">
            -34 12 -26 hhcurveto
            return
          </CharString>
          <CharString index="327">
            -4 -8 25 vhcurveto
            -520 vlineto
            -13 30 70 -15 63 hhcurveto
            152 81 86 150 hvcurveto
            return
          </CharString>
          <CharString index="328">
            170 -129 83 145 95 -91 91 hstemhm
            186 callsubr
            274 98 return
          </CharString>
          <CharString index="329">
            68 10 callgsubr
            return
          </CharString>
          <CharString index="330">
            rmoveto
            58 vlineto
            -217 169 -36 -46 115 -152 -116 -151 37 -44 rlineto
            return
          </CharString>
          <CharString index="331">
            vlineto
            -12 -7 -8 -12 -2 vhcurveto
            -87 -10 rlineto
            -52 vlineto
            -8 65 80 -4 58 hhcurveto
            endchar
          </CharString>
          <CharString index="332">
            rmoveto
            61 -41 38 -65 -64 -41 -38 -61 -60 41 -39 64 65 41 39 60 vhcurveto
            endchar
          </CharString>
          <CharString index="333">
            -26 81 rlineto
            1 return
          </CharString>
          <CharString index="334">
            316 callsubr
            -15 367 callgsubr
            50 17 hvcurveto
            return
          </CharString>
          <CharString index="335">
            86 -18 91 227 96 -92 91 hstemhm
            77 112 123 113 161 98 return
          </CharString>
          <CharString index="336">
            8 472 rmoveto
            60 -91 rlineto
            15 hlineto
            27 30 38 20 30 hhcurveto
            31 16 -20 -28 return
          </CharString>
          <CharString index="337">
            248 callsubr
            -78 vvcurveto
            return
          </CharString>
          <CharString index="338">
            39 -28 24 -41 -42 -27 -24 -39 -38 27 -25 42 41 28 25 38 vhcurveto
            endchar
          </CharString>
          <CharString index="339">
            36 247 rlineto
            117 hlineto
            -71 -247 rlineto
            return
          </CharString>
          <CharString index="340">
            46 49 -50 58 hhcurveto
            50 49 39 66 28 hvcurveto
            return
          </CharString>
          <CharString index="341">
            rmoveto
            280 75 -280 hlineto
            return
          </CharString>
          <CharString index="342">
            -174 -21 195 return
          </CharString>
          <CharString index="343">
            -52 hvcurveto
            -54 vlineto
            return
          </CharString>
          <CharString index="344">
            56 -39 46 -16 16 vhcurveto
            37 -35 -39 17 -40 hhcurveto
            -26 -36 -8 -23 -29 hvcurveto
            return
          </CharString>
          <CharString index="345">
            72 30 58 29 46 29 23 -6 24 -4 25 -1 -18 -24 -7 -28 1 -24 return
          </CharString>
          <CharString index="346">
            180 callsubr
            -44 27 -37 43 return
          </CharString>
          <CharString index="347">
            -66 -17 -30 -41 -41 vvcurveto
            -40 27 -37 43 -29 vhcurveto
            -28 41 58 -21 66 hhcurveto
            return
          </CharString>
          <CharString index="348">
            -66 callsubr
            109 hhcurveto
            100 71 49 77 hvcurveto
            return
          </CharString>
          <CharString index="349">
            -52 -68 -85 83 -69 80 return
          </CharString>
          <CharString index="350">
            80 -6 371 callsubr
            return
          </CharString>
          <CharString index="351">
            -14 20 -25 -26 -12 -20 return
          </CharString>
          <CharString index="352">
            24 -24 37 37 return
          </CharString>
          <CharString index="353">
            36 6 14 31 hvcurveto
            hintmask 0101011110000000
            6 14 -37 89 rlineto
            -12 -25 -28 -7 return
          </CharString>
          <CharString index="354">
            20 244 callsubr
            -20 -21 12 -20 26 25 14 20 21 vhcurveto
            return
          </CharString>
          <CharString index="355">
            rmoveto
            152 callgsubr
            return
          </CharString>
          <CharString index="356">
            244 callgsubr
            -27 80 rlineto
            2 -17 -18 2 -17 hhcurveto
            -98 -53 return
          </CharString>
          <CharString index="357">
            72 32 80 52 hvcurveto
            -69 82 rlineto
            -14 hlineto
            return
          </CharString>
          <CharString index="358">
            156 callsubr
            20 vvcurveto
            return
          </CharString>
          <CharString index="359">
            54.5 225.5 return
          </CharString>
          <CharString index="360">
            122 54 121 return
          </CharString>
          <CharString index="361">
            335 callgsubr
            71 return
          </CharString>
          <CharString index="362">
            99 71 48 79 return
          </CharString>
          <CharString index="363">
            24 -22 -24 14 -29 hhcurveto
            -47 -38 -35 -53 -80 85 -51 52 -24 hvcurveto
            return
          </CharString>
          <CharString index="364">
            -24 -25 -27 17 30 -23 vhcurveto
            -43 -32 rlineto
            -63 32 58 -39 66 hhcurveto
            return
          </CharString>
          <CharString index="365">
            37 275 rmoveto
            -47 33 -41 34 -32 vhcurveto
            -35 35 50 -22 51 hhcurveto
            return
          </CharString>
          <CharString index="366">
            95 65 40 60 29 22 -8 -22 -25 -28 -37 -62 -19 vhcurveto
            -19 -53 return
          </CharString>
          <CharString index="367">
            96 184 132 119 -20 hstemhm
            332 111 -40 127 return
          </CharString>
          <CharString index="368">
            -47 93 rlineto
            -15 hlineto
            -30 -55 rlineto
            -10 -5 -5 -9 -4 hhcurveto
            -7 -3 return
          </CharString>
          <CharString index="369">
            -31 -42 -27 hvcurveto
            return
          </CharString>
          <CharString index="370">
            116 -91 119 126 113 -108 135 hintmask 11101000
            return
          </CharString>
          <CharString index="371">
            88 -66 87 213 90 hstemhm
            26 100 254 103 157 101 return
          </CharString>
          <CharString index="372">
            -73 -3 -3 -18 -22 vvcurveto
            -29 5 -17 39 -37 vhcurveto
            19 -19 rlineto
            return
          </CharString>
          <CharString index="373">
            vhcurveto
            11 11 -34 callgsubr
            return
          </CharString>
          <CharString index="374">
            -21 29 -21 63 79 -67 68 hstemhm
            -290 94 45 69 -2 65 return
          </CharString>
          <CharString index="375">
            60 hlineto
            66 27 11 45 1 vhcurveto
            17 1 34 -5 29 -6 26 return
          </CharString>
          <CharString index="376">
            5 -28 23 -29 vhcurveto
            -32 25 28 -10 25 hhcurveto
            38 40 21 33 return
          </CharString>
          <CharString index="377">
            hhcurveto
            -43 -20 22 31 59 74 30 81 hvcurveto
            10 10 -42 87 rlineto
            return
          </CharString>
          <CharString index="378">
            -53 58 vhcurveto
            -55 -38 rlineto
            21 -33 15 -37 -35 vvcurveto
            -22 -6 -15 return
          </CharString>
          <CharString index="379">
            -12 93 339 95 -84 84 hstemhm
            122 111 98 109 return
          </CharString>
          <CharString index="380">
            -112 9 52 -57 70 hhcurveto
            21 20 5 4 11 hvcurveto
            endchar
          </CharString>
          <CharString index="381">
            20 312 callgsubr
            return
          </CharString>
          <CharString index="382">
            52 189 50 230 51 -4 -20 return
          </CharString>
          <CharString index="383">
            -33 -22 6 -16 hhcurveto
            -25 -24 -16 -36 return
          </CharString>
          <CharString index="384">
            -78 callgsubr
            528 -20 return
          </CharString>
          <CharString index="385">
            rmoveto
            -7 38 -4 33 46 vvcurveto
            return
          </CharString>
          <CharString index="386">
            vhcurveto
            121 vlineto
            48 -17 39 return
          </CharString>
          <CharString index="387">
            35 -13 56 481 55 return
          </CharString>
          <CharString index="388">
            85 -60 -20 43 85 hstemhm
            return
          </CharString>
          <CharString index="389">
            106 138 163 65 return
          </CharString>
          <CharString index="390">
            115 153.5 110.5 hintmask 01101110
            return
          </CharString>
          <CharString index="391">
            -175 -21 37 -21 171 79 -79 105 328 -20 hstemhm
            return
          </CharString>
          <CharString index="392">
            343 27 rmoveto
            -62 70 -30 59 50 vvcurveto
            53 32 27 83 return
          </CharString>
          <CharString index="393">
            558 383 rmoveto
            -28 -30 -28 -54 -12 vhcurveto
            -16 -50 rlineto
            return
          </CharString>
          <CharString index="394">
            hhcurveto
            -32 -17 19 21 29 33 19 45 5 hvcurveto
            8 11 rlineto
            return
          </CharString>
          <CharString index="395">
            -12 96 -95 73 110.5 86.5 return
          </CharString>
          <CharString index="396">
            hvcurveto
            4 -41 9 -24 274 callsubr
            return
          </CharString>
          <CharString index="397">
            248 10 rmoveto
            -44 49 -13 32 28 vvcurveto
            52 42 23 92 return
          </CharString>
          <CharString index="398">
            -21 158 170 -133 90 89 100 -49 -20 29 88 return
          </CharString>
          <CharString index="399">
            127 callsubr
            -52 return
          </CharString>
          <CharString index="400">
            88 -55 93 hstemhm
            -314 114 249 370 callsubr
            return
          </CharString>
          <CharString index="401">
            hstemhm
            106 138 return
          </CharString>
          <CharString index="402">
            28 -11 28 hhcurveto
            return
          </CharString>
          <CharString index="403">
            8 -18 11 -20 16 -20 rrcurveto
            -45 36 49 -27 64 hhcurveto
            return
          </CharString>
          <CharString index="404">
            -110 -4 -56 -55 -67 vvcurveto
            -44 23 -36 45 -27 vhcurveto
            return
          </CharString>
          <CharString index="405">
            -54 -42 -59 -36 21 -35 29 -28 hvcurveto
            -29 30 46 -25 return
          </CharString>
          <CharString index="406">
            rlineto
            28 -35 -30 16 -34 hhcurveto
            -49 -39 -32 -38 -26 hvcurveto
            return
          </CharString>
          <CharString index="407">
            0 164 -52 52 51 52 189 46 -45 46 hstemhm
            return
          </CharString>
          <CharString index="408">
            83 rmoveto
            14 -8 23 -30 21 369 callsubr
            22 -30 return
          </CharString>
          <CharString index="409">
            hhcurveto
            -17 -16 4 11 -14 hvcurveto
            49 28 39 47 61 vvcurveto
            return
          </CharString>
          <CharString index="410">
            -30 22 -13 16 353 callsubr
            11 11 return
          </CharString>
          <CharString index="411">
            hhcurveto
            -17 -17 4 10 -13 hvcurveto
            54 34 38 47 55 vvcurveto
            return
          </CharString>
          <CharString index="412">
            10 -17 11 -17 12 -14 rrcurveto
            -38 32 42 -29 66 hhcurveto
            return
          </CharString>
          <CharString index="413">
            hhcurveto
            -33 -20 19 25 -8 hvcurveto
            56 18 47 36 60 vvcurveto
            return
          </CharString>
          <CharString index="414">
            226 callsubr
            -11 196 callsubr
            -66 return
          </CharString>
          <CharString index="415">
            -43 -37 -35 vhcurveto
            25 -32 rlineto
            69 37 68 75 90 vvcurveto
            return
          </CharString>
          <CharString index="416">
            115 hintmask 10101000
            369 callgsubr
            return
          </CharString>
          <CharString index="417">
            -420 815 rmoveto
            27 -83 rlineto
            return
          </CharString>
          <CharString index="418">
            5 vhcurveto
            3 -11 2 -12 -10 vvcurveto
            return
          </CharString>
          <CharString index="419">
            52 vvcurveto
            42 -29 34 -41 35 vhcurveto
            return
          </CharString>
          <CharString index="420">
            hhcurveto
            8 8 0 1 return
          </CharString>
          <CharString index="421">
            -192 43 78 39 return
          </CharString>
          <CharString index="422">
            -70 82 rlineto
            -13 hlineto
            return
          </CharString>
          <CharString index="423">
            -19 335 callsubr
            return
          </CharString>
          <CharString index="424">
            3 -44 2 -42 2 rrcurveto
            144 vlineto
            hintmask 0111011110000000
            return
          </CharString>
          <CharString index="425">
            22 34 hvcurveto
            -3 14 198 callsubr
            return
          </CharString>
          <CharString index="426">
            90 -23 170 -129 87 146 90 -80 80 return
          </CharString>
          <CharString index="427">
            49 11 37 44 vhcurveto
            -43 80 rlineto
            -10 hlineto
            -27 -31 return
          </CharString>
          <CharString index="428">
            -11 22 vhcurveto
            9 10 -29 74 rlineto
            16 -24 -37 8 return
          </CharString>
          <CharString index="429">
            5 -19 367 callsubr
            return
          </CharString>
          <CharString index="430">
            -24 -24 -27 -27 -38 vvcurveto
            -35 23 -30 26 -20 vhcurveto
            return
          </CharString>
          <CharString index="431">
            -9 13 12 26 45 16 57 8 hvcurveto
            -17 69 rlineto
            return
          </CharString>
          <CharString index="432">
            vvcurveto
            -54 -20 -25 -56 -13 vhcurveto
            -47 -10 9 -57 rlineto
            return
          </CharString>
          <CharString index="433">
            243 callgsubr
            endchar
          </CharString>
          <CharString index="434">
            95 hstem
            112 111 return
          </CharString>
          <CharString index="435">
            65 6 15 0 -3 14 return
          </CharString>
          <CharString index="436">
            32 109 143 107 return
          </CharString>
          <CharString index="437">
            -2 vhcurveto
            -58 -11 rlineto
            -52 return
          </CharString>
          <CharString index="438">
            18 30 16 vhcurveto
            61 33 return
          </CharString>
          <CharString index="439">
            40 42 20 34 32 hvcurveto
            return
          </CharString>
          <CharString index="440">
            54 468 55 return
          </CharString>
          <CharString index="441">
            vlineto
            61 -11 rlineto
            return
          </CharString>
          <CharString index="442">
            51 rlineto
            -6 -13 return
          </CharString>
          <CharString index="443">
            35 42 rlineto
            endchar
          </CharString>
          <CharString index="444">
            121 rlineto
            -98 hlineto
            hintmask 10100110
            -13 -121 rlineto
            return
          </CharString>
          <CharString index="445">
            52 vlineto
            -44 -81 callgsubr
            return
          </CharString>
          <CharString index="446">
            -9 51 124 52 55 52 133 51 hstem
            return
          </CharString>
          <CharString index="447">
            -12 3 -16 4 -7 vhcurveto
            56 -16 8 8 rlineto
            return
          </CharString>
          <CharString index="448">
            83 170 102 callgsubr
            return
          </CharString>
          <CharString index="449">
            -10 114 -83 -21 315 76 42 78 hstemhm
            return
          </CharString>
          <CharString index="450">
            -24 18 45 -35 hvcurveto
            39 -29 -47 48 -75 hhcurveto
            return
          </CharString>
          <CharString index="451">
            43 rmoveto
            -15 -14 2 6 -13 hvcurveto
            284 vlineto
            return
          </CharString>
          <CharString index="452">
            hstemhm
            137 callsubr
            21 122 return
          </CharString>
          <CharString index="453">
            -95 36 -21 8 23 vvcurveto
            29 36 19 46 vhcurveto
            return
          </CharString>
          <CharString index="454" raw="1">
            f7ab0a6b a51ea20b  
          </CharString>
          <CharString index="455">
            -3 6 90 rlineto
            70 -138 -70 vlineto
            6 -90 return
          </CharString>
          <CharString index="456">
            -72 335 callgsubr
            125 114 108 return
          </CharString>
          <CharString index="457">
            -52 callsubr
            289.5 78 return
          </CharString>
          <CharString index="458">
            84 hstem
            52 103 98 91 vstem
            return
          </CharString>
          <CharString index="459">
            150 120 97 -77 105 return
          </CharString>
          <CharString index="460">
            19 vvcurveto
            34 40 16 51 vhcurveto
            return
          </CharString>
          <CharString index="461">
            122 74 122 return
          </CharString>
          <CharString index="462">
            44 371 callgsubr
            return
          </CharString>
          <CharString index="463">
            -20 hstemhm
            60 115 return
          </CharString>
          <CharString index="464">
            hstemhm
            281 98 return
          </CharString>
          <CharString index="465">
            191 0 52 203 67 191 55 return
          </CharString>
          <CharString index="466">
            136 -67 61 -87 -45 -39 -16 -29 -29 return
          </CharString>
          <CharString index="467">
            129 callgsubr
            hvcurveto
            return
          </CharString>
          <CharString index="468">
            -57 -26 -57 -24 -41 hhcurveto
            -26 -16 10 23 return
          </CharString>
          <CharString index="469">
            hstemhm
            30 96 -41 94 9 144 -56 101 return
          </CharString>
          <CharString index="470">
            28 -10 -10 rlineto
            9 -30 5 -39 -29 vvcurveto
            return
          </CharString>
          <CharString index="471">
            -76 158 297 56 -56 135 hstemhm
            return
          </CharString>
          <CharString index="472">
            95 -88 88 hstemhm
            186 callsubr
            return
          </CharString>
          <CharString index="473">
            -14 4 6 -12 hvcurveto
            281 vlineto
            9 17 return
          </CharString>
          <CharString index="474">
            -16 vvcurveto
            -55 -59 -22 -50 -18 -18 3 7 return
          </CharString>
          <CharString index="475">
            hvcurveto
            61 -96 rlineto
            endchar
          </CharString>
          <CharString index="476">
            vhcurveto
            -8 6 rlineto
            return
          </CharString>
          <CharString index="477">
            85 -74 115 return
          </CharString>
          <CharString index="478">
            -20 26 -20 hstemhm
            return
          </CharString>
          <CharString index="479">
            -20 167 -20 return
          </CharString>
        <CharString name=".notdef">
          148 0 92 329 94 hstem
          64 96 325 94 vstem
          160 141 rmoveto
          125 115 -125 123 41 42 121 -128 119 128 44 -42 -127 -122 127 -124 -41 -41 -123 128 -118 -128 rlineto
          -139 -92 rmoveto
          515 515 -515 hlineto
          endchar
        </CharString>
        <CharString name="A">
          29 callgsubr
          157 callsubr
          hintmask 11010100
          102 callsubr
          hintmask 11101000
          -166 -488 -93 callsubr
          -189 146 66 callgsubr
        </CharString>
        <CharString name="AE">
          -65 callsubr
          endchar
        </CharString>
        <CharString name="Aacute">
          29 callgsubr
          157 callsubr
          hintmask 11010100
          102 callsubr
          hintmask 11101000
          -166 -488 -93 callsubr
          -79 613 -86 callgsubr
          -110 -467 66 callgsubr
        </CharString>
        <CharString name="Abreve">
          29 callgsubr
          63 86 54 -21 157 callsubr
          hintmask 11011101
          102 callsubr
          hintmask 11101110
          -166 -488 -93 callsubr
          -76 650 -71 callsubr
          -113 -504 66 callgsubr
        </CharString>
        <CharString name="Acircumflex">
          29 callgsubr
          92 -20 23 -20 157 callsubr
          hintmask 11010101
          102 callsubr
          hintmask 11010110
          -166 -488 -93 callsubr
          -356 520 -70 callsubr
          rlineto
          hintmask 11101010
          -116 -119 rlineto
          202 -414 66 callgsubr
        </CharString>
        <CharString name="Adieresis">
          29 callgsubr
          63 125 370 callgsubr
          -72 354 callsubr
          hintmask 11011011
          102 callsubr
          hintmask 11011101
          -166 -488 -93 callsubr
          hintmask 11101011
          -267 594 -87 callsubr
          -118 -448 66 callgsubr
        </CharString>
        <CharString name="Agrave">
          29 callgsubr
          101 -20 157 callsubr
          hintmask 11011010
          102 callsubr
          hintmask 11101100
          -166 -488 -93 callsubr
          -314 698 17 callgsubr
          -61 -423 66 callgsubr
        </CharString>
        <CharString name="Amacron">
          29 callgsubr
          85 75 157 callsubr
          -435 280 hintmask 11011010
          102 callsubr
          hintmask 11011100
          -166 -488 -93 callsubr
          hintmask 11101001
          -370 553 234 callsubr
          181 -482 66 callgsubr
        </CharString>
        <CharString name="Aogonek">
          88 357 callgsubr
          52 114 62 239 103 0 -20 370 callgsubr
          149 102 hintmask 11101110
          564 -161 rmoveto
          -20 145 callgsubr
          31 33 34 52 17 hvcurveto
          46 52 hlineto
          -45 12 -10 3 -6 5 -4 10 rlinecurve
          -166 488 rlineto
          -129 hlineto
          -166 -488 -3 -10 -6 -5 -10 -3 rlinecurve
          -49 -12 rlineto
          -52 212 52 vlineto
          -69 12 31 102 rlineto
          185 hlineto
          32 -102 -70 -12 rlineto
          -52 144 -2 vlineto
          -55 -18 -49 -40 -52 vvcurveto
          -51 44 -25 58 -1 vhcurveto
          36 42 10 18 29 hvcurveto
          -230 389 rmoveto
          -147 hlineto
          hintmask 11110110
          73 239 rlineto
          endchar
        </CharString>
        <CharString name="Aring">
          88 0 52 114 62 341 -20 152 49 370 callgsubr
          -30 70 93 70 hintmask 11110110
          409 652 rmoveto
          57 -36 41 -76 -68 -52 -37 -60 -1 vhcurveto
          -40 18 -30 33 -16 vhcurveto
          hintmask 11111010
          -165 -485 -93 callsubr
          -166 487 rlineto
          hintmask 11110110
          32 16 20 29 38 vvcurveto
          211 callsubr
          88 -426 66 callgsubr
        </CharString>
        <CharString name="Atilde">
          29 callgsubr
          64 85 -60 -20 43 85 157 callsubr
          hintmask 1101010010000000
          102 callsubr
          hintmask 1101100100000000
          -166 -488 -93 callsubr
          -61 640 101 callsubr
          hintmask 1101011010000000
          -37 -33 48 -57 hhcurveto
          hintmask 1101010010000000
          -58 -40 -51 -57 -15 hvcurveto
          38 -21 rlineto
          hintmask 1101011010000000
          25 17 19 19 24 hhcurveto
          hintmask 1101100010000000
          37 33 -48 57 hhcurveto
          hintmask 1101100100000000
          58 40 51 57 15 hvcurveto
          -128 -494 rmoveto
          -147 hlineto
          hintmask 1110010010000000
          73 239 rlineto
          endchar
        </CharString>
        <CharString name="B">
          82 -4 53 -49 49 214 58 200 51 -4 -20 hstemhm
          106 137 132 136 -114 152 hintmask 10110110
          511 439 rmoveto
          88 -43 45 -160 vhcurveto
          hintmask 01101110
          -51 -36 -4 -47 hhcurveto
          -142 68 callsubr
          144 vlineto
          47 28 -4 54 hhcurveto
          hintmask 10110101
          188 56 73 99 84 -58 45 -80 6 hvcurveto
          hintmask 10110110
          61 16 39 45 75 vvcurveto
          -213 -118 rmoveto
          -14 -19 0 1 -22 hvcurveto
          196 vlineto
          2 9 31 1 8 hhcurveto
          57 27 -27 -67 -68 -23 -38 -54 hvcurveto
          hintmask 10110101
          -272 vmoveto
          -19 -22 2 3 -14 hvcurveto
          207 vlineto
          1 23 21 1 17 hhcurveto
          61 32 -25 -74 -73 -28 -42 -71 hvcurveto
          endchar
        </CharString>
        <CharString name="C">
          280 callsubr
          hstem
          34 155 vstem
          294 -13 rmoveto
          65 76 14 18 52 hvcurveto
          -94 callgsubr
          -184 85 -101 175 hvcurveto
          endchar
        </CharString>
        <CharString name="Cacute">
          280 callsubr
          hstem
          34 155 vstem
          294 -13 rmoveto
          65 76 14 18 52 hvcurveto
          -94 callgsubr
          -184 85 -101 175 hvcurveto
          162 708 -86 callgsubr
          endchar
        </CharString>
        <CharString name="Ccaron">
          280 callsubr
          170 -21 24 -21 hstemhm
          34 155 hintmask 11011000
          294 -13 rmoveto
          65 76 14 18 52 hvcurveto
          -94 callgsubr
          -184 85 -101 175 hvcurveto
          hintmask 11101000
          136 784 -42 callsubr
          hintmask 11011000
          159 callgsubr
        </CharString>
        <CharString name="Ccedilla">
          35 314 callsubr
          19 56 -54 54 481 55 hstemhm
          34 155 91 100 hintmask 11101110
          380 -99 rmoveto
          40 -29 26 -44 1 vhcurveto
          -11 hlineto
          hintmask 10101110
          6 19 63 1 72 14 50 17 rlinecurve
          -94 callgsubr
          hvcurveto
          hintmask 10011100
          -171 73 -99 151 -13 vhcurveto
          hintmask 11101110
          -21 -60 rlineto
          26 -1 17 -10 -21 vvcurveto
          -24 -25 -17 -50 -5 vhcurveto
          7 -42 rlineto
          -1 8 8 0 8 hhcurveto
          85 59 37 56 hvcurveto
          endchar
        </CharString>
        <CharString name="Ccircumflex">
          280 callsubr
          63 334 callgsubr
          34 155 hintmask 11011000
          294 -13 rmoveto
          65 76 14 18 52 hvcurveto
          -94 callgsubr
          -184 85 -101 175 hvcurveto
          -115 615 -70 callsubr
          rlineto
          hintmask 11101000
          91 callsubr
        </CharString>
        <CharString name="Cdotaccent">
          280 callsubr
          40 134 hstem
          34 155 43 146 vstem
          294 -13 rmoveto
          65 76 14 18 52 hvcurveto
          -94 callgsubr
          -184 85 -101 175 hvcurveto
          84 699 rmoveto
          -48 callgsubr
          endchar
        </CharString>
        <CharString name="D">
          118 -6 57 -51 51 468 53 -4 -20 294 callsubr
          185 151 hintmask 10101100
          173 568 rmoveto
          hintmask 01011100
          -141 68 callsubr
          142 vlineto
          29 58 -5 -1 33 hvcurveto
          hintmask 10101100
          49 callsubr
          endchar
        </CharString>
        <CharString name="Dcaron">
          118 -6 57 -51 51 468 53 -4 -20 201 -21 24 -21 294 callsubr
          185 151 hintmask 10100111
          173 568 rmoveto
          hintmask 01010111
          -141 68 callsubr
          142 vlineto
          29 58 -5 -1 33 hvcurveto
          hintmask 10100111
          49 callsubr
          hintmask 10101011
          179 712 -42 callsubr
          hintmask 10100111
          159 callgsubr
        </CharString>
        <CharString name="Dcroat">
          -59 callsubr
        </CharString>
        <CharString name="E">
          56 callsubr
          hstem
          282 callsubr
          vstem
          -104 callgsubr
          endchar
        </CharString>
        <CharString name="Eacute">
          56 callsubr
          hstem
          282 callsubr
          vstem
          -104 callgsubr
          15 282 -86 callgsubr
          endchar
        </CharString>
        <CharString name="Ebreve">
          56 callsubr
          45 86 54 -21 hstem
          282 callsubr
          vstem
          -104 callgsubr
          18 319 -71 callsubr
          endchar
        </CharString>
        <CharString name="Ecaron">
          56 callsubr
          181 -21 24 -21 hstemhm
          282 callsubr
          hintmask 11101110
          -104 callgsubr
          hintmask 11110110
          -11 358 -42 callsubr
          hintmask 11101110
          159 callgsubr
        </CharString>
        <CharString name="Ecircumflex">
          56 callsubr
          315 callgsubr
          282 callsubr
          hintmask 11101110
          -104 callgsubr
          -262 189 -70 callsubr
          rlineto
          hintmask 11110110
          91 callsubr
        </CharString>
        <CharString name="Edieresis">
          56 callsubr
          45 125 294 callsubr
          -132 354 callsubr
          -23 65 hintmask 11101001
          -104 callgsubr
          hintmask 11110110
          -173 263 -87 callsubr
          endchar
        </CharString>
        <CharString name="Edotaccent">
          56 callsubr
          51 134 294 callsubr
          -46 146 63 65 hintmask 11101010
          -104 callgsubr
          hintmask 11110110
          -63 273 rmoveto
          -48 callgsubr
          endchar
        </CharString>
        <CharString name="Egrave">
          56 callsubr
          83 -20 hstem
          282 callsubr
          vstem
          -104 callgsubr
          -220 367 17 callgsubr
          endchar
        </CharString>
        <CharString name="Emacron">
          56 callsubr
          67 75 294 callsubr
          -113 280 -4 65 hintmask 11111010
          -104 callgsubr
          -276 222 rmoveto
          hintmask 11110100
          280 75 hlineto
          hintmask 11111010
          -280 hlineto
          endchar
        </CharString>
        <CharString name="Eng">
          161 -191 66 -45 -21 29 -21 183 246 callgsubr
          hstemhm
          106 76 304 76 hintmask 01011110
          562 39 rmoveto
          442 vlineto
          12 139 callsubr
          53 11 rlineto
          55 -223 -55 vlineto
          60 -11 181 callsubr
          -12 vvcurveto
          -291 vlineto
          -238 378 -71 callgsubr
          12 vvcurveto
          338 vlineto
          283 -437 rlineto
          hintmask 10011110
          -14 -44 -22 -21 -23 -15 -27 -18 -38 -9 -28 -3 rrcurveto
          hintmask 00111110
          3 -58 rlineto
          hintmask 01011110
          -4 22 21 -4 29 hhcurveto
          132 42 92 138 hvcurveto
          endchar
        </CharString>
        <CharString name="Eogonek">
          32 357 callgsubr
          59 195 70 188 56 294 callsubr
          41 103 19 65 hintmask 11111100
          494 -161 rmoveto
          -19 145 callgsubr
          32 40 36 60 14 hvcurveto
          9 59 5 53 59 vvcurveto
          -65 10 -31 -90 -5 -13 -4 -7 -10 -4 rlinecurve
          -5 -13 -29 -3 -24 hhcurveto
          -77 197 hlineto
          156 -4 rlineto
          75 vlineto
          -156 -6 rlineto
          191 61 vlineto
          hintmask 11111110
          269 callgsubr
          65 hlineto
          -89 callgsubr
          359 -2 vlineto
          hintmask 11111100
          -57 -19 -49 -39 -52 vvcurveto
          -50 44 -26 59 -1 vhcurveto
          36 41 10 18 29 hvcurveto
          endchar
        </CharString>
        <CharString name="Eth">
          -59 callsubr
        </CharString>
        <CharString name="Euro">
          58 339 callsubr
          108 141 vstem
          500 19 rmoveto
          7 49 2 47 -3 38 -74 6 rcurveline
          -26 -72 -4 -11 -5 -8 -6 -6 rlinecurve
          -10 -10 -22 -10 -21 hhcurveto
          -50 -26 43 81 -9 hvcurveto
          125 52 -129 hlineto
          10 0 11 11 8 0 8 7 vvcurveto
          135 52 -132 hlineto
          95 9 30 38 50 hhcurveto
          18 18 -5 -8 11 hvcurveto
          10 -8 5 -8 4 -20 17 -71 rcurveline
          73 hlineto
          8 54 3 47 -3 42 rrcurveto
          18 -46 -58 10 -50 hhcurveto
          -122 -87 -58 -126 -26 hvcurveto
          -83 -52 76 hlineto
          -1 -11 0 -13 -12 -7 0 -6 -6 vvcurveto
          -80 -52 85 hlineto
          -115 20 71 -60 129 hhcurveto
          53 69 9 19 45 hvcurveto
          endchar
        </CharString>
        <CharString name="Euro.tf">
          -36 339 callsubr
          60 137 vstem
          -3 166 rmoveto
          67 hlineto
          -120 17 64 -55 123 hhcurveto
          49 65 10 18 46 hvcurveto
          8 48 0 49 -4 38 -74 6 rcurveline
          -21 -68 -4 -16 -5 -9 -8 -7 rlinecurve
          -11 -12 -18 -7 -18 hhcurveto
          -43 -21 41 83 -8 hvcurveto
          106 52 -109 hlineto
          9 0 11 10 9 0 8 8 vvcurveto
          113 52 -110 hlineto
          98 8 25 35 45 hhcurveto
          15 14 -4 -10 9 hvcurveto
          6 -8 2 -8 5 -19 16 -71 rcurveline
          74 hlineto
          8 54 3 47 -3 42 rrcurveto
          19 -44 -54 9 -45 hhcurveto
          -115 -79 -54 -130 -23 hvcurveto
          -67 -52 61 hlineto
          -1 -12 0 -12 -13 -6 0 -6 -6 vvcurveto
          -63 hlineto
          endchar
        </CharString>
        <CharString name="F">
          -6 0 52 193 69.5 355 callgsubr
          56 hstem
          282 callsubr
          vstem
          400 243 rmoveto
          74 vlineto
          -156 -5 rlineto
          200 61 vlineto
          269 callgsubr
          65 hlineto
          4 148 callsubr
          -437 -55 hlineto
          57 -11 181 callsubr
          -12 vvcurveto
          -399 vlineto
          -10 -6 -7 -10 330 callsubr
          321 52 vlineto
          -93 12 rlineto
          -9 1 -7 7 9 vvcurveto
          166 vlineto
          endchar
        </CharString>
        <CharString name="G">
          84 -12 166 callsubr
          215 callgsubr
          hintmask 10111010
          95 callgsubr
          hintmask 10111100
          -237 -56 hlineto
          hintmask 10111010
          -90 callgsubr
          hintmask 01111010
          71 -54 rlineto
          endchar
        </CharString>
        <CharString name="Gbreve">
          84 -12 166 callsubr
          34 86 54 -21 215 callgsubr
          hintmask 1011111010000000
          95 callgsubr
          hintmask 1011111100000000
          -237 -56 hlineto
          hintmask 1011111010000000
          -90 callgsubr
          hintmask 0111111010000000
          71 -54 rlineto
          -13 738 -71 callsubr
          endchar
        </CharString>
        <CharString name="Gcircumflex">
          84 -12 166 callsubr
          63 -20 23 -20 215 callgsubr
          hintmask 1011011010000000
          95 callgsubr
          hintmask 1011011100000000
          -237 -56 hlineto
          hintmask 1011011010000000
          -90 callgsubr
          hintmask 0111011010000000
          71 -54 rlineto
          -293 608 -70 callsubr
          rlineto
          hintmask 1011101010000000
          91 callsubr
        </CharString>
        <CharString name="Gcommaaccent">
          84 -174 -21 183 166 callsubr
          hstemhm
          35 160 77 87 -39 180 -111 131 hintmask 1101110010000000
          95 callgsubr
          hintmask 1101110100000000
          -237 -56 hlineto
          hintmask 1101110010000000
          -90 callgsubr
          hintmask 1011110010000000
          71 -54 rlineto
          hintmask 1101111010000000
          -135 -107 -99 callgsubr
        </CharString>
        <CharString name="Gdotaccent">
          84 -12 166 callsubr
          40 134 hstemhm
          35 160 59 146 -80 180 -111 131 hintmask 1011010010000000
          95 callgsubr
          hintmask 1011010100000000
          -237 -56 hlineto
          hintmask 1011010010000000
          -90 callgsubr
          hintmask 0111010010000000
          71 -54 rlineto
          hintmask 1011111000000000
          -94 692 rmoveto
          -48 callgsubr
          endchar
        </CharString>
        <CharString name="H">
          358 callsubr
          hstem
          106 138 199 138 vstem
          -44 callgsubr
          endchar
        </CharString>
        <CharString name="Hbar">
          191 0 52 185 67 64 52 -52 200 -55 55 294 callsubr
          199 138 hintmask 11101110
          36 368 rmoveto
          70 -285 hlineto
          -11 -5 -7 -12 -2 vhcurveto
          -56 -11 rlineto
          -52 273 52 vlineto
          -45 195 callsubr
          154 199 -154 vlineto
          -11 -6 -7 -10 -2 vhcurveto
          -41 -11 rlineto
          -52 269 52 vlineto
          -57 195 callsubr
          285 70 52 -70 61 vlineto
          11 6 8 11 2 vhcurveto
          57 11 rlineto
          hintmask 11010110
          55 -269 vlineto
          hintmask 11101110
          -55 vlineto
          41 -11 rlineto
          10 -3 6 -7 -11 vvcurveto
          -61 -199 61 vlineto
          12 5 7 11 2 vhcurveto
          46 11 rlineto
          hintmask 11010110
          55 -273 vlineto
          hintmask 11101110
          -55 vlineto
          57 -11 -6 callgsubr
          5 -7 -12 vvcurveto
          -61 -70 vlineto
          208 -116 rmoveto
          64 199 -64 vlineto
          endchar
        </CharString>
        <CharString name="Hcircumflex">
          358 callsubr
          315 callgsubr
          106 138 199 138 hintmask 11101110
          -44 callgsubr
          -436 89 -70 callsubr
          rlineto
          hintmask 11110110
          91 callsubr
        </CharString>
        <CharString name="I">
          -146 279 callgsubr
          138 vstem
          -101 callsubr
          endchar
        </CharString>
        <CharString name="IJ">
          183 279 callgsubr
          138 203 138 vstem
          -101 callsubr
          285 -11 -75 callsubr
          endchar
        </CharString>
        <CharString name="Iacute">
          -146 279 callgsubr
          138 vstem
          -101 callsubr
          9 182 -86 callgsubr
          endchar
        </CharString>
        <CharString name="Iacute_J.NLD">
          183 279 callgsubr
          138 203 138 vstem
          -101 callsubr
          285 -11 -75 callsubr
          -276 193 -86 callgsubr
          337 hmoveto
          -55 81 -193 -124 23 -45 73 20 98 30 54 38 rlinecurve
          endchar
        </CharString>
        <CharString name="Ibreve">
          138 callsubr
          45 86 54 -21 hstem
          106 138 vstem
          -101 callsubr
          12 219 -71 callsubr
          endchar
        </CharString>
        <CharString name="Icircumflex">
          138 callsubr
          315 callgsubr
          106 138 hintmask 11011000
          -101 callsubr
          -268 89 -70 callsubr
          rlineto
          hintmask 11101000
          91 callsubr
        </CharString>
        <CharString name="Idieresis">
          138 callsubr
          45 125 hstemhm
          16 122 -32 138 -32 122 hintmask 11101000
          -101 callsubr
          hintmask 11110100
          -179 163 -87 callsubr
          endchar
        </CharString>
        <CharString name="Idotaccent">
          138 callsubr
          51 134 hstemhm
          102 146 -142 138 hintmask 11101000
          -101 callsubr
          hintmask 11110000
          -69 173 rmoveto
          -48 callgsubr
          endchar
        </CharString>
        <CharString name="Igrave">
          138 callsubr
          83 -20 hstem
          106 138 vstem
          -101 callsubr
          -226 267 17 callgsubr
          endchar
        </CharString>
        <CharString name="Imacron">
          138 callsubr
          67 75 hstemhm
          35 280 -209 138 hintmask 11101000
          -101 callsubr
          hintmask 11110000
          -282 122 234 callsubr
          endchar
        </CharString>
        <CharString name="Iogonek">
          -146 357 callgsubr
          246 callgsubr
          hstemhm
          68 102 -64 138 hintmask 11101000
          276 -161 rmoveto
          hintmask 11110000
          316 callsubr
          -14 275 callgsubr
          34 50 17 hvcurveto
          hintmask 11101000
          65 52 hlineto
          -56 11 rlineto
          -12 171 callgsubr
          397 vlineto
          12 5 7 12 2 vhcurveto
          56 11 rlineto
          55 -285 -55 vlineto
          57 -11 181 callsubr
          -12 vvcurveto
          -398 116 callsubr
          hintmask 11110000
          -16 callsubr
          137 -2 vlineto
          -53 -18 -48 -40 -52 vvcurveto
          -51 44 -25 58 -1 vhcurveto
          hintmask 11101000
          36 42 10 18 28 hvcurveto
          endchar
        </CharString>
        <CharString name="Itilde">
          138 callsubr
          46 281 callsubr
          106 138 hintmask 11010100
          -101 callsubr
          hintmask 11100100
          27 209 101 callsubr
          hintmask 11011100
          -37 -33 48 -57 hhcurveto
          hintmask 11010100
          -58 -40 -51 -57 -15 hvcurveto
          38 -21 rlineto
          hintmask 11011100
          25 17 19 19 24 hhcurveto
          hintmask 11100100
          37 33 -48 57 hhcurveto
          58 40 51 57 15 hvcurveto
          endchar
        </CharString>
        <CharString name="J">
          -167 513 55 hstem
          97 138 vstem
          252 502 -75 callsubr
          endchar
        </CharString>
        <CharString name="Jacute">
          -167 513 55 hstem
          97 138 vstem
          252 502 -75 callsubr
          62 193 -86 callgsubr
          endchar
        </CharString>
        <CharString name="Jcircumflex">
          -167 513 55 315 callgsubr
          97 138 hintmask 10110000
          252 502 -75 callsubr
          -215 100 -70 callsubr
          rlineto
          hintmask 11010000
          91 callsubr
        </CharString>
        <CharString name="K">
          113 0 52 450 -20 31 55 hstemhm
          106 137 123.5 223.5 hintmask 10111000
          -4 callsubr
          hintmask 11111000
          64 -11 -188 -229 rlineto
          hintmask 10111000
          208 vlineto
          12 139 callsubr
          57 11 rlineto
          55 -285 -55 vlineto
          -102 callgsubr
          vlineto
          endchar
        </CharString>
        <CharString name="Kcommaaccent">
          113 235 callsubr
          52 450 -20 31 55 hstemhm
          106 137 68 87 -31.5 223.5 hintmask 11011010
          -4 callsubr
          hintmask 11111010
          64 -11 -188 -229 rlineto
          hintmask 11011100
          208 vlineto
          12 139 callsubr
          57 11 rlineto
          55 -285 -55 vlineto
          -102 callgsubr
          vlineto
          366 -113 -99 callgsubr
        </CharString>
        <CharString name="L">
          19 0 60 453 55 hstem
          106 138 vstem
          -89 callsubr
          endchar
        </CharString>
        <CharString name="Lacute">
          19 0 60 453 55 hstem
          106 138 vstem
          -89 callsubr
          -56 485 -86 callgsubr
          endchar
        </CharString>
        <CharString name="Lcaron">
          21 0 60 453 55 hstem
          106 138 vstem
          -89 callsubr
          -10 177 51 callsubr
        </CharString>
        <CharString name="Lcommaaccent">
          19 235 callsubr
          60 453 55 294 callsubr
          16 87 hintmask 11110000
          -89 callsubr
          hintmask 11111000
          -83 -323 -99 callgsubr
        </CharString>
        <CharString name="Ldot">
          24 0 60 205 134 114 55 hstem
          106 138 109 147 vstem
          -89 callsubr
          70 122 rmoveto
          19 callgsubr
        </CharString>
        <CharString name="Lslash">
          20 0 60 453 55 hstem
          107 138 vstem
          32 185 rmoveto
          75 29 rlineto
          -131 vlineto
          -11 -6 -7 -12 -2 vhcurveto
          -56 -11 rlineto
          -52 452 vlineto
          14 70 0 69 62 vvcurveto
          -68 9 -36 -117 -4 -13 -7 -7 -11 -4 rlinecurve
          -5 -12 -23 -4 -30 hhcurveto
          -63 203 hlineto
          142 56 rlineto
          66 vlineto
          -142 -58 rlineto
          154 vlineto
          11 139 callsubr
          74 12 rlineto
          55 -303 348 callgsubr
          -204 vlineto
          -75 -29 rlineto
          endchar
        </CharString>
        <CharString name="M">
          339 0 52 -32 32 430 86 -55 55 hstemhm
          15 226 -226 808 hintmask 10010100
          692 480 rmoveto
          -2 12 6 8 12 2 65 11 rcurveline
          55 -264 vlineto
          -89 -377 -98 377 rlineto
          -264 -55 hlineto
          62 -11 12 -2 5 -8 -1 -12 rlinecurve
          hintmask 10101000
          -48 -396 -1 -11 -6 -6 -10 -3 rlinecurve
          -56 -12 rlineto
          -52 226 52 vlineto
          -79 11 46 414 rlineto
          hintmask 01100100
          131 -457 rlineto
          110 hlineto
          109 462 rlineto
          hintmask 10010100
          57 -419 -66 -11 rlineto
          -52 274 52 vlineto
          -54 12 -10 3 -6 6 -2 11 rlinecurve
          endchar
        </CharString>
        <CharString name="N">
          161 279 callgsubr
          76 304 76 vstem
          -94 callsubr
          endchar
        </CharString>
        <CharString name="NULL">
          endchar
        </CharString>
        <CharString name="Nacute">
          161 279 callgsubr
          76 304 76 vstem
          -94 callsubr
          -95 193 -86 callgsubr
          endchar
        </CharString>
        <CharString name="Ncaron">
          161 153 callsubr
          181 -21 24 -21 hstemhm
          106 76 304 76 hintmask 11011100
          -94 callsubr
          hintmask 11101100
          -121 269 -42 callsubr
          hintmask 11011100
          159 callgsubr
        </CharString>
        <CharString name="Ncommaaccent">
          161 235 callsubr
          246 callgsubr
          hstem
          106 76 144 87 73 76 vstem
          -94 callsubr
          -166 -615 -99 callgsubr
        </CharString>
        <CharString name="Ntilde">
          161 153 callsubr
          46 281 callsubr
          106 76 304 76 hintmask 11010110
          -94 callsubr
          hintmask 11100110
          -77 220 -31 callgsubr
        </CharString>
        <CharString name="O">
          169 callsubr
          hstem
          138 callgsubr
          vstem
          -98 callgsubr
          endchar
        </CharString>
        <CharString name="OE">
          294 -8 53 -45 59 195 70 188 56 -46 53 hstemhm
          34 151 183 138 163 64 hintmask 10101110
          296 45 rmoveto
          -76 -35 63 172 176 36 66 79 22 25 -7 -16 21 hvcurveto
          -429 vlineto
          -18 -21 -27 -7 -24 hhcurveto
          hintmask 01110111
          454 -45 rmoveto
          9 59 5 53 59 vvcurveto
          -65 10 -31 -90 -5 -13 -4 -6 -11 -5 rlinecurve
          -5 -12 -29 -3 -24 hhcurveto
          -77 197 hlineto
          156 -4 rlineto
          75 vlineto
          -156 -6 rlineto
          191 61 vlineto
          18 callgsubr
          6 -6 4 295 callgsubr
          64 hlineto
          5 148 callsubr
          -358 hlineto
          hintmask 10101110
          5 -24 -26 2 -25 hhcurveto
          -172 -92 -114 -188 -178 77 -103 175 hvcurveto
          hintmask 01110110
          29 28 3 5 25 hvcurveto
          endchar
        </CharString>
        <CharString name="Oacute">
          169 callsubr
          hstem
          138 callgsubr
          vstem
          -98 callgsubr
          150 172 -86 callgsubr
          endchar
        </CharString>
        <CharString name="Obreve">
          169 callsubr
          33 86 54 -21 hstem
          138 callgsubr
          vstem
          -98 callgsubr
          153 209 -71 callsubr
          endchar
        </CharString>
        <CharString name="Ocircumflex">
          169 callsubr
          62 334 callgsubr
          138 callgsubr
          hintmask 11011100
          -98 callgsubr
          -127 79 -70 callsubr
          rlineto
          hintmask 11101100
          91 callsubr
        </CharString>
        <CharString name="Odieresis">
          169 callsubr
          33 125 hstemhm
          34 151 -53 354 callsubr
          -54 151 hintmask 11010010
          -98 callgsubr
          hintmask 11101100
          -38 153 -87 callsubr
          endchar
        </CharString>
        <CharString name="Ograve">
          169 callsubr
          71 -20 hstem
          138 callgsubr
          vstem
          -98 callgsubr
          -85 257 17 callgsubr
          endchar
        </CharString>
        <CharString name="Ohungarumlaut">
          169 callsubr
          55 334 callgsubr
          138 callgsubr
          hintmask 11011100
          -98 callgsubr
          -104 76 92 callgsubr
        </CharString>
        <CharString name="Omacron">
          169 callsubr
          55 75 hstemhm
          34 151 -34 280 -35 151 hintmask 11110100
          -98 callgsubr
          hintmask 11101000
          -141 112 234 callsubr
          endchar
        </CharString>
        <CharString name="Oslash">
          85 -12 55 -23 -21 525 56 -12 -20 93 -20 hstemhm
          31 143 226 144 hintmask 10101110
          544 294 rmoveto
          113 -31 86 -68 47 vhcurveto
          35 70 -58 31 rlineto
          hintmask 10011110
          -36 -73 rlineto
          hintmask 01101110
          8 -26 -30 4 -33 hhcurveto
          -174 -92 -113 -194 -115 32 -86 70 -46 hvcurveto
          -40 -81 59 -30 41 84 rlineto
          hintmask 10101110
          -7 26 28 -4 31 hhcurveto
          174 92 113 193 hvcurveto
          -370 -14 rmoveto
          177 39 67 76 29 22 -9 -21 18 vhcurveto
          -167 -369 rlineto
          -11 37 -6 51 67 vvcurveto
          111 -237 rmoveto
          -26 -22 8 19 -17 hvcurveto
          166 366 rlineto
          9 -36 5 -48 -63 vvcurveto
          -177 -39 -69 -76 vhcurveto
          endchar
        </CharString>
        <CharString name="Otilde">
          169 callsubr
          34 281 callsubr
          138 callgsubr
          hintmask 11010110
          -98 callgsubr
          hintmask 11100110
          168 199 -31 callgsubr
        </CharString>
        <CharString name="P">
          37 0 52 149 53 266 48 -48 52 294 callsubr
          132 140 hintmask 11011100
          244 516 rmoveto
          1 10 7 3 26 hhcurveto
          58 31 -36 -83 -113 -37 -34 -51 -19 -11 1 2 -14 hvcurveto
          106 -205 rmoveto
          -90 12 rlineto
          -9 1 -7 7 9 vvcurveto
          122 vlineto
          -1 15 16 -1 17 hhcurveto
          147 77 76 128 107 -48 59 -166 1 hvcurveto
          hintmask 11101100
          -56 -37 -4 -32 hhcurveto
          -145 -55 hlineto
          59 -12 rlineto
          9 -2 6 -7 -8 vvcurveto
          -403 vlineto
          -9 -6 -7 -10 330 callsubr
          318 vlineto
          endchar
        </CharString>
        <CharString name="Q">
          85 -154 91 586 57 hstem
          138 callgsubr
          vstem
          495 -154 rmoveto
          50 47 28 24 20 hvcurveto
          -12 43 rlineto
          -2 -12 -14 -2 -17 hhcurveto
          -36 -33 10 22 -39 hvcurveto
          -26 14 -22 11 -27 8 rrcurveto
          111 36 62 104 152 vvcurveto
          173 -76 113 -171 -174 -92 -117 -190 -169 73 -111 162 -5 vhcurveto
          -45 87 27 -97 112 hhcurveto
          -203 677 rmoveto
          70 34 -66 -168 -174 -37 -71 -71 -69 -34 67 169 173 36 70 71 hvcurveto
          endchar
        </CharString>
        <CharString name="R">
          106 0 193 callgsubr
          140 145 hintmask 11101100
          -92 callsubr
          hintmask 11011100
          -22 callgsubr
          endchar
        </CharString>
        <CharString name="Racute">
          106 0 193 callgsubr
          140 145 hintmask 11101100
          -92 callsubr
          hintmask 11011100
          -22 callgsubr
          408 695 -86 callgsubr
          endchar
        </CharString>
        <CharString name="Rcaron">
          106 0 275 callsubr
          201 -21 24 -21 hstemhm
          106 137 140 145 hintmask 11100111
          -92 callsubr
          hintmask 11011011
          -22 callgsubr
          382 771 -42 callsubr
          hintmask 11100111
          159 callgsubr
        </CharString>
        <CharString name="Rcommaaccent">
          106 235 callsubr
          193 callgsubr
          66 87 -13 145 hintmask 11110101
          -92 callsubr
          hintmask 11101110
          -22 callgsubr
          364 -113 -99 callgsubr
        </CharString>
        <CharString name="S">
          -15 -12 53 486 52 hstem
          45 130 137 137 vstem
          -99 callsubr
          -23 48 68 -20 76 hhcurveto
          158 58 91 82 hvcurveto
          endchar
        </CharString>
        <CharString name="Sacute">
          -15 -12 53 486 52 hstem
          45 130 137 137 vstem
          -99 callsubr
          -23 48 68 -20 76 hhcurveto
          158 58 91 82 hvcurveto
          -50 534 -86 callgsubr
          endchar
        </CharString>
        <CharString name="Scaron">
          -15 -12 53 486 52 170 -21 24 -21 hstemhm
          45 130 137 137 hintmask 11011100
          -99 callsubr
          -23 48 68 -20 76 hhcurveto
          158 58 91 82 hvcurveto
          hintmask 11101100
          -76 610 -42 callsubr
          hintmask 11011100
          159 callgsubr
        </CharString>
        <CharString name="Scedilla">
          -15 314 callsubr
          20 53 486 52 hstemhm
          45 130 42 100 -5 137 hintmask 10111010
          -99 callsubr
          hintmask 10111100
          40 -19 53 -17 61 -5 rrcurveto
          hintmask 11111100
          -21 -61 -77 callgsubr
          hintmask 10111100
          6 20 rlineto
          hintmask 10111010
          152 58 91 82 hvcurveto
          endchar
        </CharString>
        <CharString name="Scircumflex">
          -15 -12 53 486 52 63 334 callgsubr
          45 130 137 137 hintmask 11011100
          -99 callsubr
          -23 48 68 -20 76 hhcurveto
          158 58 91 82 hvcurveto
          -327 441 -70 callsubr
          rlineto
          hintmask 11101100
          91 callsubr
        </CharString>
        <CharString name="Scommaaccent">
          -15 -174 -21 183 53 486 52 hstemhm
          45 130 27 87 23 137 hintmask 11110100
          -99 callsubr
          -23 48 68 -20 76 hhcurveto
          158 58 91 82 hvcurveto
          hintmask 11111100
          -160 -274 -99 callgsubr
        </CharString>
        <CharString name="T">
          89 0 52 308 164 callsubr
          129 74 cntrmask 00011100
          hintmask 10111100
          -16 callgsubr
          hintmask 11011100
          281 callgsubr
          hintmask 10111100
          136 callgsubr
          hintmask 11011100
          165 callsubr
          hintmask 10111100
          -17 callgsubr
          endchar
        </CharString>
        <CharString name="Tbar">
          89 0 52 161 60 87 164 callsubr
          129 74 hintmask 11010110
          136 213 rmoveto
          88 -128 hlineto
          -11 201 callsubr
          -86 -14 rlineto
          -52 343 52 vlineto
          -85 14 rlineto
          -11 199 callsubr
          128 87 60 -87 239 29 vlineto
          20 19 -3 -4 11 hvcurveto
          10 -4 5 -6 2 -9 rrcurveto
          hintmask 11100110
          281 callgsubr
          hintmask 11011110
          136 callgsubr
          hintmask 11101110
          165 callsubr
          hintmask 11010110
          31 125 2 10 5 6 10 4 rlinecurve
          4 12 19 3 19 hhcurveto
          31 -239 -88 hlineto
          endchar
        </CharString>
        <CharString name="Tcaron">
          89 0 52 308 208 -56 56 181 -21 24 -21 278 callgsubr
          129 74 hintmask 10101011
          -16 callgsubr
          hintmask 11001011
          281 callgsubr
          hintmask 10101111
          136 callgsubr
          hintmask 11001111
          165 callsubr
          hintmask 10110011
          -17 callgsubr
          297 771 -42 callsubr
          hintmask 10101011
          159 callgsubr
        </CharString>
        <CharString name="Thorn">
          37 0 52 66 52 222 56 65 55 hstem
          101 136 128 144 vstem
          314 hmoveto
          52 vlineto
          -60 11 -72 callsubr
          38 vlineto
          -3 24 23 -1 31 hhcurveto
          125 69 55 121 106 -55 48 -111 -33 -38 -4 -3 -35 hvcurveto
          40 vlineto
          12 139 callsubr
          60 11 rlineto
          55 -280 -55 vlineto
          50 -11 181 callsubr
          -12 vvcurveto
          -398 116 callsubr
          -50 -11 rlineto
          -52 vlineto
          255 170 rmoveto
          -15 -18 1 3 -19 hvcurveto
          215 vlineto
          2 18 17 1 15 hhcurveto
          58 1 20 -48 -56 vvcurveto
          -84 -29 -35 -47 vhcurveto
          endchar
        </CharString>
        <CharString name="U">
          133 235 callgsubr
          hstem
          219 callgsubr
          vstem
          -103 callgsubr
          endchar
        </CharString>
        <CharString name="Uacute">
          169 callgsubr
          hstem
          219 callgsubr
          vstem
          -103 callgsubr
          -124 127 -86 callgsubr
          endchar
        </CharString>
        <CharString name="Ubreve">
          169 callgsubr
          45 86 54 -21 hstem
          219 callgsubr
          vstem
          -103 callgsubr
          -121 164 -71 callsubr
          endchar
        </CharString>
        <CharString name="Ucircumflex">
          169 callgsubr
          315 callgsubr
          219 callgsubr
          hintmask 11011100
          -103 callgsubr
          -401 34 -70 callsubr
          rlineto
          hintmask 11101100
          91 callsubr
        </CharString>
        <CharString name="Udieresis">
          169 callgsubr
          45 125 hstemhm
          83 142 -61 354 callsubr
          -25 85 hintmask 11110010
          -103 callgsubr
          hintmask 11101100
          -312 108 -87 callsubr
          endchar
        </CharString>
        <CharString name="Ugrave">
          169 callgsubr
          83 -20 hstem
          219 callgsubr
          vstem
          -103 callgsubr
          -359 212 17 callgsubr
          endchar
        </CharString>
        <CharString name="Uhungarumlaut">
          169 callgsubr
          67 334 callgsubr
          219 callgsubr
          hintmask 11011100
          -103 callgsubr
          -378 31 92 callgsubr
        </CharString>
        <CharString name="Umacron">
          169 callgsubr
          67 75 hstemhm
          83 142 -42 117 80 83 -6 85 hintmask 11110100
          380 568 rmoveto
          -55 vlineto
          hintmask 11110010
          61 -11 -6 callgsubr
          5 -7 -12 vvcurveto
          -278 vlineto
          -93 -28 -65 -89 -85 -30 59 99 vhcurveto
          277 vlineto
          11 6 8 11 2 vhcurveto
          hintmask 11101010
          58 12 rlineto
          55 vlineto
          hintmask 11110010
          -269 -55 hlineto
          36 -10 rlineto
          10 -3 6 -7 -11 vvcurveto
          -267 vlineto
          -159 77 -65 158 137 87 59 160 vhcurveto
          -40 callsubr
          vlineto
          hintmask 11101100
          -415 67 234 callsubr
          endchar
        </CharString>
        <CharString name="Uogonek">
          131 -189 70 110 333 callsubr
          hstem
          83 142 33 102 97 85 vstem
          258 -112 rmoveto
          -50 44 -26 59 -1 vhcurveto
          35 42 10 18 29 hvcurveto
          316 callsubr
          -16 -3 -13 hhcurveto
          -27 -19 11 25 35 39 33 62 39 hvcurveto
          0 1 1 0 vhcurveto
          53 33 27 63 89 vvcurveto
          -40 callsubr
          -218 -55 334 callsubr
          11 -2 5 -7 -12 vvcurveto
          -278 vlineto
          -93 -28 -65 -89 -85 -30 59 99 vhcurveto
          277 vlineto
          11 6 8 11 2 vhcurveto
          58 12 rlineto
          55 -269 -55 vlineto
          36 -10 rlineto
          10 -3 6 -7 -11 vvcurveto
          -267 vlineto
          -159 77 -65 158 12 11 0 1 11 vhcurveto
          -2 vlineto
          -42 -16 -52 -34 -52 vvcurveto
          endchar
        </CharString>
        <CharString name="Uring">
          169 callgsubr
          29 51 95 50 hstemhm
          83 142 -19 72 90 71 18 85 hintmask 11011001
          -103 callgsubr
          hintmask 11110111
          -159 127 79 callgsubr
        </CharString>
        <CharString name="Utilde">
          169 callgsubr
          46 281 callsubr
          219 callgsubr
          hintmask 11010110
          -103 callgsubr
          hintmask 11100110
          -106 154 -31 callgsubr
        </CharString>
        <CharString name="V">
          89 -2 116 -95 -21 502 -20 33 55 hstemhm
          -7 594 -212 212 hintmask 01011000
          236 -2 rmoveto
          123 hlineto
          hintmask 10010100
          159 487 3 10 7 5 9 2 rlinecurve
          50 11 rlineto
          55 -212 -55 vlineto
          70 -13 -117 -386 rlineto
          hintmask 01111000
          -131 386 rlineto
          hintmask 01011000
          70 13 rlineto
          55 -274 -55 vlineto
          46 -11 9 -2 7 -5 3 -10 rlinecurve
          endchar
        </CharString>
        <CharString name="W">
          -50 callsubr
          endchar
        </CharString>
        <CharString name="Wacute">
          -50 callsubr
          155 366 -86 callgsubr
          endchar
        </CharString>
        <CharString name="Wcircumflex">
          41 callgsubr
          315 callgsubr
          323 259 62 203 hintmask 0010101110000000
          -38 callsubr
          hintmask 0101101110000000
          234 callgsubr
          hintmask 1000101110000000
          -13 callgsubr
          hintmask 0011101110000000
          -101 387 rlineto
          hintmask 0010101110000000
          -39 callsubr
          -122 273 -70 callsubr
          rlineto
          hintmask 0010110110000000
          91 callsubr
        </CharString>
        <CharString name="Wdieresis">
          41 callgsubr
          45 125 hstemhm
          268 122 -67 259 -118 122 58 203 hintmask 0010111011000000
          -38 callsubr
          hintmask 0101110101000000
          234 callgsubr
          hintmask 1000110101000000
          -13 callgsubr
          hintmask 0011111011000000
          -101 387 rlineto
          hintmask 0010111011000000
          -39 callsubr
          -33 347 -87 callsubr
          endchar
        </CharString>
        <CharString name="Wgrave">
          41 callgsubr
          83 -20 hstemhm
          323 259 62 203 hintmask 00101111
          -38 callsubr
          hintmask 01011111
          234 callgsubr
          hintmask 10001111
          -13 callgsubr
          hintmask 00111111
          -101 387 rlineto
          hintmask 00101111
          -39 callsubr
          -80 451 17 callgsubr
          endchar
        </CharString>
        <CharString name="X">
          69 0 52 448 -20 33 55 hstemhm
          6 213 125 201 hintmask 10111000
          562 hmoveto
          52 vlineto
          -41 11 -9 2 -7 4 -5 8 rlinecurve
          -152 233 127 178 5 8 7 4 9 2 rlinecurve
          49 11 rlineto
          55 -201 -55 vlineto
          hintmask 11111000
          62 -13 -94 -142 -86 142 rlineto
          hintmask 10111000
          56 13 rlineto
          55 -267 -55 vlineto
          41 -11 9 -3 6 -4 5 -8 rlinecurve
          140 -217 -136 -193 -6 -9 -5 -3 -9 -2 rlinecurve
          -54 -11 rlineto
          -52 213 52 vlineto
          -68 12 102 156 95 -156 -56 -12 rlineto
          -52 vlineto
          endchar
        </CharString>
        <CharString name="Y">
          -36 callgsubr
          endchar
        </CharString>
        <CharString name="Yacute">
          -36 callgsubr
          317 695 -86 callgsubr
          endchar
        </CharString>
        <CharString name="Ycircumflex">
          194 callsubr
          315 callgsubr
          207 142 -6 203 hintmask 10101100
          28 callsubr
          hintmask 10101010
          -24 callgsubr
          hintmask 11101100
          -101 197 rlineto
          hintmask 10101100
          -58 callgsubr
          40 602 -70 callsubr
          rlineto
          hintmask 10110100
          91 callsubr
        </CharString>
        <CharString name="Ydieresis">
          194 callsubr
          45 125 hstemhm
          128 122 -43 142 -25 122 -103 203 hintmask 10110100
          28 callsubr
          hintmask 10110001
          -24 callgsubr
          hintmask 11110100
          -101 197 rlineto
          hintmask 10110100
          -58 callgsubr
          hintmask 10111010
          129 676 -87 callsubr
          endchar
        </CharString>
        <CharString name="Ygrave">
          194 callsubr
          83 -20 hstemhm
          207 142 -6 203 hintmask 10111000
          28 callsubr
          hintmask 10110100
          -24 callgsubr
          hintmask 11111000
          -101 197 rlineto
          hintmask 10111000
          -58 callgsubr
          82 780 rmoveto
          -58 -80 rlineto
          hintmask 10110100
          52 -39 94 -34 72 -23 26 47 rcurveline
          endchar
        </CharString>
        <CharString name="Z">
          -21 callgsubr
          endchar
        </CharString>
        <CharString name="Zacute">
          -21 callgsubr
          383 695 -86 callgsubr
          endchar
        </CharString>
        <CharString name="Zcaron">
          23 0 60 321 188 -55 55 180 -21 24 -21 hstemhm
          18 466 hintmask 10101100
          -41 callgsubr
          hintmask 11001100
          -11 -58 -4 -68 3 -62 rrcurveto
          76 hlineto
          hintmask 10110100
          16 callsubr
          357 771 -42 callsubr
          hintmask 10101100
          159 callgsubr
        </CharString>
        <CharString name="Zdotaccent">
          23 0 60 321 188 -55 55 50 134 hstemhm
          203 146 hintmask 10101000
          -41 callgsubr
          hintmask 11001000
          -11 -58 -4 -68 3 -62 rrcurveto
          76 hlineto
          hintmask 10111000
          16 callsubr
          305 686 rmoveto
          -48 callgsubr
          endchar
        </CharString>
        <CharString name="__periodcentered.CAT">
          -419 209 134 hstem
          -39 147 vstem
          108 276 225 callgsubr
        </CharString>
        <CharString name="__periodcentered.CAT.case">
          -491 265 134 hstem
          -153 146 vstem
          -7 332 rmoveto
          231 callgsubr
        </CharString>
        <CharString name="a">
          -42 callgsubr
          hstem
          187 callgsubr
          vstem
          -105 callgsubr
          endchar
        </CharString>
        <CharString name="aacute">
          -42 callgsubr
          hstem
          187 callgsubr
          vstem
          -105 callgsubr
          39 463 -86 callsubr
        </CharString>
        <CharString name="abreve">
          -42 callgsubr
          48 86 hstem
          187 callgsubr
          vstem
          -105 callgsubr
          226 602 -74 callsubr
        </CharString>
        <CharString name="acircumflex">
          -42 callgsubr
          76 372 callsubr
          hstem
          187 callgsubr
          vstem
          -105 callgsubr
          -40 467 -76 callgsubr
        </CharString>
        <CharString name="acute">
          -132 455 204 hstem
          113 216 vstem
          146 455 -86 callsubr
        </CharString>
        <CharString name="acutecomb">
          455 204 hstem
          -69 216 vstem
          -36 455 -86 callsubr
        </CharString>
        <CharString name="acutecomb.case">
          607 169 hstem
          -97 248 vstem
          151 695 -86 callgsubr
          endchar
        </CharString>
        <CharString name="adieresis">
          -42 callgsubr
          53 124 hstemhm
          24 134 -87 253 callsubr
          -109 127 hintmask 11111001
          -105 callgsubr
          hintmask 11110110
          48 547 -87 callgsubr
        </CharString>
        <CharString name="ae">
          -78 callsubr
          endchar
        </CharString>
        <CharString name="agrave">
          -42 callgsubr
          hstem
          187 callgsubr
          vstem
          -105 callgsubr
          23 667 -30 callgsubr
        </CharString>
        <CharString name="amacron">
          -42 callgsubr
          69 75 hstemhm
          24 134 -72 267 -94 127 hintmask 11111010
          -105 callgsubr
          hintmask 11110100
          -59 501 153 callgsubr
        </CharString>
        <CharString name="ampersand">
          113 -11 57 -53 70 -49 -21 271 55 217 43 hstemhm
          29 119 -63 122 99 111 -38 202 hintmask 1001101100000000
          207 461 rmoveto
          50 21 25 32 27 19 -21 -53 -40 -12 -46 -36 -35 vhcurveto
          -41 57 -10 29 34 vvcurveto
          51 -415 rmoveto
          hintmask 1001110100000000
          -69 -41 44 66 37 13 22 17 19 hvcurveto
          36 -46 60 -74 56 -51 rrcurveto
          hintmask 1001101100000000
          -13 -26 -26 -4 -20 hhcurveto
          hintmask 1001110010000000
          323 218 rmoveto
          55 -202 -55 vlineto
          56 -12 rlineto
          11 -3 2 -7 -13 vvcurveto
          -25 -6 -33 -17 -28 vhcurveto
          -47 48 -54 64 -37 47 rrcurveto
          hintmask 1001101100000000
          88 27 42 55 68 vvcurveto
          78 -52 49 -100 -109 -71 -59 -90 -51 23 -48 37 -53 vhcurveto
          hintmask 1001110100000000
          -52 -14 -64 -36 -91 vvcurveto
          -104 82 -44 112 56 54 14 27 38 vhcurveto
          hintmask 0011110100000000
          -28 39 32 -9 35 hhcurveto
          32 41 7 9 27 hvcurveto
          hintmask 0101110010000000
          54 vlineto
          -48 -24 5 41 -45 hvcurveto
          40 34 21 43 9 45 2 13 1 5 11 3 rrcurveto
          endchar
        </CharString>
        <CharString name="aogonek">
          -41 -189 70 111 72 -48 -21 175.5 47.5 121 85 hstemhm
          24 134 70 100 -69 127 hintmask 10111001
          433 -161 rmoveto
          hintmask 10111010
          -18 51 rlineto
          -6 -14 -13 275 callgsubr
          33 50 18 hvcurveto
          hintmask 11011101
          12 2 11 3 8 2 rrcurveto
          49 vlineto
          -36 5 rlineto
          -12 1 -7 6 15 vvcurveto
          180 vlineto
          106 -49 55 -118 -99 -60 -39 -63 -24 vhcurveto
          30 -26 rlineto
          29 32 38 14 44 hhcurveto
          51 28 -19 -59 hvcurveto
          -41 vlineto
          -74 -4 rlineto
          -85 -5 -76 -39 -78 vvcurveto
          -62 47 -40 74 vhcurveto
          hintmask 11011010
          51 43 17 33 28 hvcurveto
          hintmask 10111010
          12 -28 21 -14 27 -5 rrcurveto
          -51 -17 -48 -40 -50 vvcurveto
          -51 43 -25 58 -1 vhcurveto
          hintmask 10111001
          35 41 10 18 28 hvcurveto
          hintmask 11011101
          -232 225 rmoveto
          -31 -12 15 30 32 14 26 47 2 hvcurveto
          40 3 rlineto
          -90 vlineto
          -11 -16 -20 -7 -22 hhcurveto
          endchar
        </CharString>
        <CharString name="approxequal">
          -20 68 89 -39 89 31 89 -39 89 hstemhm
          39 391 hintmask 10011000
          430 173 rmoveto
          -36 29 rlineto
          -25 -21 -25 -20 -29 hhcurveto
          hintmask 01011000
          105 callsubr
          hintmask 10011000
          233 callsubr
          hintmask 01101000
          170 vmoveto
          -36 29 rlineto
          -25 -21 -25 -20 -29 hhcurveto
          hintmask 01011000
          105 callsubr
          hintmask 01101000
          233 callsubr
          endchar
        </CharString>
        <CharString name="aring">
          -42 callgsubr
          39 49 91 49 hstemhm
          24 134 -51 70 82 127 -123 70 hintmask 1111110100000000
          -105 callgsubr
          hintmask 1111101010000000
          188 565 -45 callgsubr
        </CharString>
        <CharString name="asciicircum">
          -24 271 295 hstem
          27 420 vstem
          27 308 rmoveto
          46 -37 157 182 163 -182 54 37 -169 258 -97 -8 rlineto
          endchar
        </CharString>
        <CharString name="asciitilde">
          -23 153 89 -39 89 hstemhm
          38 391 hintmask 10100000
          429 258 rmoveto
          -36 29 rlineto
          -25 -21 -25 -20 -29 hhcurveto
          hintmask 01100000
          105 callsubr
          hintmask 10100000
          233 callsubr
          endchar
        </CharString>
        <CharString name="asterisk">
          -53 423 -20 96 -20 37 -20 155 -20 hstemhm
          173.5 96 hintmask 11011000
          239 499 320 callgsubr
          rlineto
          hintmask 10111000
          62 callsubr
          rlineto
          hintmask 11011000
          -45 -33 rlineto
          endchar
        </CharString>
        <CharString name="asterisk.gujr">
          -53 505 -20 155 -20 hstem
          173.5 96 vstem
          239 535 320 callgsubr
          62 callsubr
          -45 -33 rlineto
          endchar
        </CharString>
        <CharString name="at">
          277 -192 66 102 97 -88 78 266 67 108 65 hstemhm
          29 83 82 102 158 88 125 73 hintmask 1101111110000000
          333 -192 rmoveto
          75 72 20 35 42 hvcurveto
          -20 43 rlineto
          -19 -28 -66 -13 -53 hhcurveto
          -131 -112 83 197 209 127 141 179 114 135 -57 -183 hvcurveto
          hintmask 1011111110000000
          -132 -72 -69 -32 -15 -6 13 33 79 38 166 4 20 vhcurveto
          -71 22 -24 -25 rlineto
          19 -36 -27 6 -27 hhcurveto
          -127 -78 -132 -122 hvcurveto
          hintmask 1101111110000000
          -106 59 -60 58 70 52 91 91 32 vhcurveto
          hintmask 1011111110000000
          -7 -47 -4 -32 -19 vvcurveto
          -49 22 -26 32 65 167 103 205 175 -121 101 -167 -232 -194 -194 -254 3 vhcurveto
          hintmask 1101111110000000
          -190 3 113 -123 188 hhcurveto
          116 436 rmoveto
          -105 -31 -49 -66 -31 hhcurveto
          -29 -13 56 47 71 29 82 59 25 33 -16 -24 19 hvcurveto
          -3 -14 -4 -15 -5 -16 rrcurveto
          endchar
        </CharString>
        <CharString name="atilde">
          -42 callgsubr
          45 188 callgsubr
          187 callgsubr
          hintmask 11100111
          -105 callgsubr
          238 589 rmoveto
          hintmask 11110011
          -38 22 rlineto
          -27 -16 -19 -20 -22 hhcurveto
          hintmask 11101011
          -22 callsubr
          hintmask 11110011
          35 32 -52 54 hhcurveto
          hintmask 11100111
          57 38 53 59 15 hvcurveto
          endchar
        </CharString>
        <CharString name="b">
          -13 -8 51 305 77 214 -20 36 -20 hstemhm
          55 131 128 139 hintmask 11011100
          55 20 rmoveto
          -13 30 71 -15 64 hhcurveto
          152 81 86 150 359 callsubr
          hvcurveto
          hintmask 11101100
          259 vlineto
          hintmask 11011100
          -18 16 -51 -1 -75 -9 -51 -13 rlinecurve
          -52 vlineto
          47 -8 rlineto
          11 -1 6 -8 -11 vvcurveto
          174 -509 rmoveto
          -17 -15 4 6 -11 hvcurveto
          282 vlineto
          9 17 18 4 18 hhcurveto
          49 28 -34 -110 -2 hvcurveto
          -113 -1 -29 -48 -55 hhcurveto
          endchar
        </CharString>
        <CharString name="backslash">
          -120 633 -20 hstem
          18 337 vstem
          355 -105 rmoveto
          -234 738 rlineto
          -103 hlineto
          235 -738 rlineto
          endchar
        </CharString>
        <CharString name="bar">
          -259 -116 809 hstem
          70 97.5 vstem
          70 -116 rmoveto
          97 hlineto
          1 809 rlineto
          -98 hlineto
          endchar
        </CharString>
        <CharString name="braceleft">
          -163 -154 876 -474 72 204 callsubr
          47 10 68 51 vvcurveto
          72 -52 30 -66 11 vhcurveto
          66 12 52 27 71 51 -10 68 47 vvcurveto
          55 20 24 56 13 vhcurveto
          47 12 284 callgsubr
          -50 -74 vvcurveto
          hintmask 01010000
          -63 16 -65 -51 vvcurveto
          -48 -11 -29 -79 -7 vhcurveto
          -72 vlineto
          79 -8 11 -28 -49 -51 -16 -64 -64 250 callgsubr
        </CharString>
        <CharString name="braceleft.gujr">
          -163 -154 825 -449 73 204 callsubr
          40 10 58 43 vvcurveto
          71 -52 31 -66 11 vhcurveto
          66 11 52 27 71 44 -10 57 40 vvcurveto
          55 20 24 56 14 vhcurveto
          47 11 284 callgsubr
          -49 -75 vvcurveto
          hintmask 01010000
          -54 16 -56 -43 vvcurveto
          -49 -11 -28 -79 -7 vhcurveto
          -73 vlineto
          79 -7 11 -29 -48 -44 -16 -55 -55 250 callgsubr
        </CharString>
        <CharString name="braceright">
          -163 -154 876 -474 72 hstemhm
          123 115 hintmask 10100000
          115 -149 rmoveto
          97 9 41 49 75 vvcurveto
          hintmask 01100000
          63 -15 65 51 vvcurveto
          49 10 28 80 8 vhcurveto
          72 vlineto
          -80 7 -10 29 48 51 15 65 64 vvcurveto
          293 callgsubr
          47 -10 rlineto
          56 -13 20 -25 -55 -47 -9 -69 -51 vvcurveto
          -71 52 -28 65 -11 vhcurveto
          -65 -11 -52 -30 -72 -51 9 -68 -48 325 callsubr
          hintmask 10100000
          27 40 2 3 30 hvcurveto
          endchar
        </CharString>
        <CharString name="braceright.gujr">
          -163 -154 825 -449 73 hstemhm
          123 115 -106 121 hintmask 10100000
          115 -149 rmoveto
          hintmask 10010000
          97 9 41 49 75 vvcurveto
          hintmask 01100000
          54 -15 56 44 vvcurveto
          48 10 29 80 7 vhcurveto
          73 vlineto
          -80 7 -10 28 49 43 15 57 54 vvcurveto
          hintmask 10010000
          293 callgsubr
          rlineto
          hintmask 10100000
          47 -10 rlineto
          56 -13 20 -25 -55 -40 -9 -58 -44 vvcurveto
          -71 52 -27 65 -11 vhcurveto
          -65 -12 -52 -30 -71 -44 9 -58 -40 325 callsubr
          27 40 2 3 30 hvcurveto
          endchar
        </CharString>
        <CharString name="bracketleft">
          -192 -153 69 735 57 205 callgsubr
          682 vlineto
          12 7 7 12 2 vhcurveto
          87 10 rlineto
          52 364 callgsubr
          -841 326 callgsubr
        </CharString>
        <CharString name="bracketleft.gujr">
          -192 -153 69 691.5 56.5 205 callgsubr
          638 vlineto
          12 7 8 12 1 vhcurveto
          87 11 rlineto
          51 364 callgsubr
          -797 326 callgsubr
        </CharString>
        <CharString name="bracketright">
          -192 -153 69 735 57 338 callgsubr
          841 vlineto
          -18 16 -58 1 -80 -4 -65 -9 rlinecurve
          -52 vlineto
          87 -10 rlineto
          12 -2 7 -7 -12 vvcurveto
          -682 224 callsubr
        </CharString>
        <CharString name="bracketright.gujr">
          -192 -153 69 691.5 56.5 338 callgsubr
          797 vlineto
          -18 16 -58 1 -80 -4 -65 -9 rlinecurve
          -51 vlineto
          87 -11 rlineto
          12 -1 7 -8 -12 vvcurveto
          -638 224 callsubr
        </CharString>
        <CharString name="breve">
          -132 472 86 hstem
          31 302 vstem
          333 594 -74 callsubr
        </CharString>
        <CharString name="brokenbar">
          -260 -116 809 hstem
          69 98 vstem
          69 345 rmoveto
          98 348 -98 hlineto
          -809 vmoveto
          98 347 -98 hlineto
          endchar
        </CharString>
        <CharString name="bullet">
          -147 131 198 hstem
          69 211 vstem
          280 230 225 callsubr
        </CharString>
        <CharString name="bullet.gujr">
          -67 164 198 hstem
          109 211 vstem
          320 263 225 callsubr
        </CharString>
        <CharString name="bulletoperator">
          -138 147 151 hstem
          102 155 vstem
          257 223 rmoveto
          45 -31 30 -47 -47 -30 -30 -45 -46 30 -30 47 47 31 30 46 vhcurveto
          endchar
        </CharString>
        <CharString name="c">
          280 callgsubr
          hstem
          29 141 vstem
          -90 callsubr
          endchar
        </CharString>
        <CharString name="cacute">
          280 callgsubr
          hstem
          29 141 vstem
          -90 callsubr
          163 253 -86 callsubr
        </CharString>
        <CharString name="caron">
          -132 567 -20 hstem
          34 308 vstem
          302 659 -56 callgsubr
        </CharString>
        <CharString name="ccaron">
          280 callgsubr
          142 -20 hstem
          29 141 vstem
          -90 callsubr
          319 457 -56 callgsubr
        </CharString>
        <CharString name="ccedilla">
          -82 314 callsubr
          23 80 -56 -21 373 58 hstemhm
          29 141 37 100 hintmask 10101110
          29 202 rmoveto
          hintmask 10011110
          -108 48 -85 109 -15 vhcurveto
          hintmask 11101110
          -22 -65 -77 callgsubr
          hintmask 10101110
          7 23 rlineto
          81 58 39 53 18 hvcurveto
          -28 22 rlineto
          -15 -18 -32 -19 -43 hhcurveto
          -70 -26 50 99 107 30 40 38 15 12 -6 -7 8 hvcurveto
          7 -6 4 -8 4 -17 21 -73 rcurveline
          64 hlineto
          8 45 4 49 -4 49 rrcurveto
          18 -33 -55 14 -52 hhcurveto
          -123 -89 -77 -146 hvcurveto
          endchar
        </CharString>
        <CharString name="ccircumflex">
          280 callgsubr
          75 372 callsubr
          hstem
          29 141 vstem
          -90 callsubr
          84 257 -76 callgsubr
        </CharString>
        <CharString name="cdotaccent">
          280 callgsubr
          47 131 hstemhm
          29 141 -5 143 hintmask 11110000
          -90 callsubr
          hintmask 11101000
          279 336 -72 callgsubr
          endchar
        </CharString>
        <CharString name="cedilla">
          -132 -192 43 78 90 hstem
          174 100 vstem
          162 19 rmoveto
          -31 -90 -77 callgsubr
          15 51 rlineto
          endchar
        </CharString>
        <CharString name="cent">
          -67 364 callsubr
          31 141 11 71 -38 72 hintmask 10111000
          31 -20 callsubr
        </CharString>
        <CharString name="cent.tf">
          -36 364 callsubr
          43 141 11 71 -38 72 hintmask 10111000
          43 -20 callsubr
        </CharString>
        <CharString name="circumflex">
          -132 500 372 callsubr
          hstem
          27 309 vstem
          67 459 -76 callgsubr
        </CharString>
        <CharString name="colon">
          -248 -6 134 167 133 hstem
          51 146 vstem
          197 361 rmoveto
          356 callgsubr
          -28 -26 -41 -40 28 -26 45 44 29 26 40 vhcurveto
          -300 vmoveto
          231 callgsubr
        </CharString>
        <CharString name="colon.gujr">
          -169 67 126 102 126 hstem
          95 138 vstem
          233 358 rmoveto
          38 -28 25 -41 -42 -27 -25 -38 -39 27 -24 42 41 28 24 39 vhcurveto
          -228 vmoveto
          231 callsubr
        </CharString>
        <CharString name="comma">
          -270 -172 304 hstem
          92 97 vstem
          189 30 rmoveto
          64 -34 38 -48 -41 -29 -27 -41 -28 15 -19 16 -11 vhcurveto
          13 -10 11 -1 -22 vvcurveto
          -35 -28 308 callsubr
          endchar
        </CharString>
        <CharString name="comma.gujr">
          -192 -156 277 hstem
          136 88 vstem
          224 28 rmoveto
          59 -31 34 -44 -37 -26 -25 -37 -26 14 -16 14 -10 vhcurveto
          12 -9 10 -2 -20 vvcurveto
          -32 -26 -39 -33 -32 vhcurveto
          23 -29 rlineto
          62 35 62 68 81 vvcurveto
          endchar
        </CharString>
        <CharString name="copyright">
          233 -49 49 94 71 250 58 96 49 hstem
          31 58 106 111 334 58 vstem
          363 94 rmoveto
          72 53 34 46 18 hvcurveto
          -26 23 rlineto
          -19 -19 -34 -13 -32 hhcurveto
          -58 -31 44 88 83 27 35 38 16 14 -7 -7 8 hvcurveto
          8 -6 3 -7 2 -10 16 -62 rcurveline
          56 hlineto
          8 43 2 41 -5 40 rrcurveto
          19 -27 -47 14 -48 hhcurveto
          -104 -78 -65 -128 -114 63 -72 105 hvcurveto
          -274 190 rmoveto
          168 114 117 162 163 112 -117 -168 -167 -113 -117 -162 -162 -114 117 167 vhcurveto
          -58 hmoveto
          -193 141 -140 193 193 140 140 193 193 -139 141 -194 -193 -141 -141 -193 vhcurveto
          endchar
        </CharString>
        <CharString name="currency">
          15 114 90 154 91 hstem
          88 95 144 95 vstem
          88 277 rmoveto
          -36 11 -32 18 -26 vhcurveto
          -82 -82 48 -49 85 85 rlineto
          -15 25 29 -8 32 hhcurveto
          32 30 9 16 26 hvcurveto
          85 -85 48 48 -85 84 rlineto
          20 28 12 34 37 vvcurveto
          35 -11 32 -18 27 vhcurveto
          84 82 -49 49 -85 -85 rlineto
          15 -26 -30 9 -33 hhcurveto
          -32 -30 -9 -16 -25 hvcurveto
          -85 85 -47 -49 84 -82 rlineto
          -19 -29 -12 -35 -37 vvcurveto
          167 -73 rmoveto
          -38 -34 34 42 40 25 38 45 38 36 -31 -47 -42 -24 -34 -48 hvcurveto
          endchar
        </CharString>
        <CharString name="d">
          7 -56 callsubr
          endchar
        </CharString>
        <CharString name="dagger">
          -133 399 50.5 hstem
          113 138 vstem
          209 -93 rmoveto
          30 454 2 7 5 5 8 2 rlinecurve
          87 24 rlineto
          52 vlineto
          -96 348 callsubr
          -97 3 rlineto
          -52 vlineto
          87 -24 10 -3 5 -6 1 -9 rlinecurve
          29 -450 rlineto
          endchar
        </CharString>
        <CharString name="daggerdbl">
          -123 399 50.5 hstemhm
          117 138 -123.5 109 -91 73.5 hintmask 10010000
          214 -93 rmoveto
          18 282 1 8 4 7 11 3 rlinecurve
          98 28 rlineto
          53 vlineto
          hintmask 10100000
          -108 -4 5 72 rlineto
          hintmask 11000000
          1 9 5 7 10 3 87 24 rcurveline
          52 vlineto
          -97 348 callsubr
          -96 3 rlineto
          -52 vlineto
          hintmask 10100000
          87 -24 8 -2 5 -5 2 -7 rlinecurve
          5 -77 -107 4 rlineto
          -53 vlineto
          hintmask 10010000
          98 -28 8 -2 5 -6 2 -7 rlinecurve
          19 -285 rlineto
          endchar
        </CharString>
        <CharString name="dcaron">
          20 -56 callsubr
          334 476 51 callsubr
        </CharString>
        <CharString name="dcroat">
          7 -8 71 295 56 56 53 115 -20 37 -20 hstemhm
          30 138 131 131 hintmask 11101110
          170 470 rmoveto
          129 -61 hlineto
          3 -16 -20 2 -18 hhcurveto
          -138 -77 -78 -145 -139 69 -60 95 49 38 19 31 28 hvcurveto
          -33 16 29 -16 42 hhcurveto
          32 39 9 5 17 hvcurveto
          49 vlineto
          -36 5 rlineto
          -11 1 -7 5 16 vvcurveto
          387 53 53 -53 vlineto
          hintmask 11110110
          115 vlineto
          hintmask 11101110
          -18 17 -52 -1 -73 -9 -53 -14 rlinecurve
          -51 vlineto
          48 -7 181 callsubr
          -12 vvcurveto
          -29 -129 vlineto
          70 -460 rmoveto
          -47 -25 40 104 hvcurveto
          116 1 33 35 53 hhcurveto
          15 17 -3 -6 12 hvcurveto
          -272 vlineto
          -9 -18 -22 -5 -19 hhcurveto
          endchar
        </CharString>
        <CharString name="degree">
          -161 332 68 140 68 hstem
          28 75 128 76 vstem
          167 332 rmoveto
          78 62 59 79 75 -59 63 -81 -76 -63 -59 -79 -75 63 -63 76 hvcurveto
          68 vmoveto
          -35 -29 33 37 39 26 31 37 37 28 -33 -37 -40 -26 -30 -38 hvcurveto
          endchar
        </CharString>
        <CharString name="dieresis">
          -132 477 124 hstem
          33 253 callsubr
          vstem
          155 539 -87 callgsubr
        </CharString>
        <CharString name="divide">
          -88 29 118 41 76 40 118 hstem
          138 132 vstem
          375 188 rmoveto
          76 -342 -76 vlineto
          237 -100 rmoveto
          36 -26 23 -40 -40 -26 -23 -36 -35 26 -24 40 40 26 24 35 vhcurveto
          275 vmoveto
          36 -26 23 -40 -40 -26 -23 -36 -36 26 -23 40 40 26 23 36 vhcurveto
          endchar
        </CharString>
        <CharString name="dollar">
          -48 296 callgsubr
          40 337 callgsubr
          420 -53 callgsubr
        </CharString>
        <CharString name="dollar.tf">
          -36 296 callgsubr
          45 337 callgsubr
          425 -53 callgsubr
        </CharString>
        <CharString name="dotaccent">
          -132 472 131 hstem
          119 143 vstem
          262 538 -72 callgsubr
          endchar
        </CharString>
        <CharString name="dotlessi">
          65 callgsubr
          hstem
          85 132 vstem
          -101 callgsubr
          endchar
        </CharString>
        <CharString name="dotlessiogonek">
          -205 357 callgsubr
          56 callgsubr
          hstemhm
          43 102 -60 132 hintmask 11101000
          252 -161 rmoveto
          hintmask 11110000
          227 callsubr
          hintmask 11101000
          45 52 hlineto
          -39 -81 callgsubr
          328 vlineto
          -95 callsubr
          hintmask 11110000
          221 callgsubr
          hintmask 11101000
          36 41 10 18 29 hvcurveto
          endchar
        </CharString>
        <CharString name="dotlessj">
          -229 -175 -21 620 -20 hstem
          78 130 vstem
          191 424 -85 callsubr
          endchar
        </CharString>
        <CharString name="e">
          80 callsubr
          hstem
          30 134 118 119 vstem
          -102 callsubr
          endchar
        </CharString>
        <CharString name="eacute">
          80 callsubr
          hstem
          30 134 118 119 vstem
          -102 callsubr
          -39 84 -86 callsubr
        </CharString>
        <CharString name="ebreve">
          80 callsubr
          48 86 hstem
          30 134 118 119 vstem
          -102 callsubr
          148 223 -74 callsubr
        </CharString>
        <CharString name="ecaron">
          80 callsubr
          143 -20 hstem
          30 134 118 119 vstem
          -102 callsubr
          117 288 -56 callgsubr
        </CharString>
        <CharString name="ecircumflex">
          80 callsubr
          76 372 callsubr
          hstem
          30 134 118 119 vstem
          -102 callsubr
          -118 88 -76 callgsubr
        </CharString>
        <CharString name="edieresis">
          80 callsubr
          53 124 hstemhm
          30 134 -89 253 callsubr
          -90 119 hintmask 11101001
          -102 callsubr
          hintmask 11110110
          -30 168 -87 callgsubr
        </CharString>
        <CharString name="edotaccent">
          80 callsubr
          48 131 hstemhm
          30 134 -3 143 -22 119 hintmask 11101010
          -102 callsubr
          hintmask 11110100
          77 167 -72 callgsubr
          endchar
        </CharString>
        <CharString name="egrave">
          80 callsubr
          hstem
          30 134 118 119 vstem
          -102 callsubr
          -55 288 -30 callgsubr
        </CharString>
        <CharString name="eight">
          -20 -12 56 415 54 hstemhm
          33 263 callsubr
          33 -41 callsubr
        </CharString>
        <CharString name="eight.tf">
          -36 -12 56 415 54 hstemhm
          25 263 callsubr
          25 -41 callsubr
        </CharString>
        <CharString name="ellipsis">
          185 -6 134 hstem
          40 147 80 146 81 146 vstem
          413 61 rmoveto
          -48 callgsubr
          227 hmoveto
          -48 callgsubr
          -453 hmoveto
          19 callgsubr
        </CharString>
        <CharString name="ellipsis.gujr">
          271 -6 127 hstem
          87 138 89 138 89 138 vstem
          452 57 rmoveto
          249 callgsubr
          227 hmoveto
          249 callgsubr
          -454 hmoveto
          232 callgsubr
        </CharString>
        <CharString name="emacron">
          80 callsubr
          69 75 hstemhm
          30 134 -74 267 -75 119 hintmask 11111010
          -102 callsubr
          hintmask 11110100
          -137 122 153 callgsubr
        </CharString>
        <CharString name="emdash">
          318 174 85 hstem
          47 721 vstem
          47 174 rmoveto
          721 85 -721 hlineto
          endchar
        </CharString>
        <CharString name="emdash.gujr">
          318 202 101 hstem
          47 720 311 callgsubr
          687 hlineto
          23 -91 -10 -10 rlineto
          -687 hlineto
          endchar
        </CharString>
        <CharString name="endash">
          25 174 85 hstem
          47 428 vstem
          47 174 rmoveto
          428 85 -428 hlineto
          endchar
        </CharString>
        <CharString name="endash.gujr">
          25 202 101 hstem
          47 428 311 callgsubr
          395 hlineto
          23 -91 -11 -10 rlineto
          -394 hlineto
          endchar
        </CharString>
        <CharString name="eng">
          32 -170 -21 26 -21 186 350 callsubr
          hstemhm
          85 132 123 134 hintmask 10111100
          474 9 rmoveto
          257 vlineto
          101 -30 56 -98 -54 -47 -18 -37 -35 vhcurveto
          -7 40 -19 16 -49 -1 -59 -7 -51 -47 callsubr
          -10 -2 vhcurveto
          -40 12 callgsubr
          228 255 callgsubr
          -10 4 -6 130 callgsubr
          21 6 20 hhcurveto
          43 19 -25 -68 hvcurveto
          -233 vlineto
          hintmask 01111100
          -68 -7 -33 -18 -19 vhcurveto
          -19 -20 -32 -7 -25 -5 3 -53 rcurveline
          hintmask 10111100
          -3 19 24 -2 19 hhcurveto
          121 49 73 127 hvcurveto
          endchar
        </CharString>
        <CharString name="enspace">
          -68 endchar
        </CharString>
        <CharString name="eogonek">
          -65 -189 70 110 80 154 48 98 53 hstemhm
          30 134 13 100 5 119 hintmask 11111100
          177 -113 rmoveto
          -50 45 -25 56 -1 vhcurveto
          36 40 10 18 29 hvcurveto
          316 callsubr
          -15 -3 -15 hhcurveto
          -24 -20 12 27 31 22 30 45 39 hvcurveto
          2 2 3 1 2 2 25 20 15 21 9 23 -30 23 rcurveline
          -28 -25 -40 -13 -40 hhcurveto
          hintmask 11111010
          35 callsubr
          4 17 2 23 19 vvcurveto
          81 -49 59 -116 -132 -74 -76 -144 -131 61 -82 134 vhcurveto
          hintmask 11111100
          12 11 1 1 10 hvcurveto
          -2 vlineto
          -32 -16 -49 -35 -53 vvcurveto
          hintmask 11111010
          50 484 rmoveto
          38 17 -34 -47 -7 0 -5 -1 -5 hvcurveto
          -115 hlineto
          74 6 22 24 33 hhcurveto
          endchar
        </CharString>
        <CharString name="equal">
          -57 99 82 83 83 hstem
          45 342 vstem
          387 264 rmoveto
          83 -342 -83 vlineto
          342 -165 rmoveto
          82 -342 -82 vlineto
          endchar
        </CharString>
        <CharString name="estimated">
          11 -12 56 183.5 52.5 168 51 hstem
          35 141 167 133 vstem
          176 417 rmoveto
          20 22 36 11 35 hhcurveto
          30 29 -8 -13 15 hvcurveto
          -147 -167 vlineto
          268 -244 rmoveto
          -25 47 rlineto
          -18 -26 -44 -21 -60 hhcurveto
          -48 -41 14 23 -24 hvcurveto
          147 vlineto
          296 -1 rlineto
          4 19 0 25 30 vvcurveto
          127 -4 -77 71 -123 hhcurveto
          -151 -86 -109 -145 -152 95 -105 151 70 59 22 26 34 hvcurveto
          endchar
        </CharString>
        <CharString name="eth">
          -19 -8 56 292 70 243 -20 21 -20 hstemhm
          30 142 131 136 hintmask 11011100
          439 238 rmoveto
          hintmask 11101100
          120 -46 114 -91 81 vhcurveto
          77 43 -36 57 rlineto
          hintmask 11011100
          -93 -61 -44 28 -52 21 -60 13 rlinecurve
          -23 -46 40 -21 33 -21 28 -22 rlinecurve
          -92 -53 35 -58 103 69 31 -35 22 -39 13 -47 rlinecurve
          20 -23 -32 9 -30 hhcurveto
          -74 -95 -55 -155 -138 74 -70 121 165 49 121 125 hvcurveto
          -202 -190 rmoveto
          -48 -17 57 94 110 23 31 43 25 19 -9 -15 15 hvcurveto
          4 -30 2 -32 -36 vvcurveto
          -126 -19 -44 -47 vhcurveto
          endchar
        </CharString>
        <CharString name="exclam">
          -238 -6 131 hstem
          57 144 vstem
          57 546 rmoveto
          33 -361 rlineto
          78 hlineto
          33 361 rlineto
          77 -144 vlineto
          145 -564 rmoveto
          40 -29 26 -44 -44 -29 -26 -40 -39 29 -26 44 44 29 26 39 vhcurveto
          endchar
        </CharString>
        <CharString name="exclam.gujr">
          -78 -6 119 400 -20 hstem
          142 134 vstem
          245 159 rmoveto
          31 288 rlineto
          66 -134 -66 vlineto
          31 -288 rlineto
          103 -106 rmoveto
          37 -27 23 -40 -40 -26 -23 -37 -36 26 -23 40 41 26 23 36 vhcurveto
          endchar
        </CharString>
        <CharString name="exclamdown">
          -249 -182 -21 498 130 hstem
          51 145 vstem
          196 -203 rmoveto
          76 vlineto
          -33 361 rlineto
          -79 hlineto
          -33 -361 rlineto
          -76 vlineto
          145 563 rmoveto
          40 -28 25 -44 -45 -29 -25 -40 -40 29 -25 45 44 28 25 40 vhcurveto
          endchar
        </CharString>
        <CharString name="f">
          -153 0 56 287 70 138 103 hstemhm
          85 132 -129 128 hintmask 11101000
          88 429 rmoveto
          -15 vlineto
          hintmask 11110000
          -64 -12 -63 callsubr
          280 52 vlineto
          -74 292 callgsubr
          hintmask 11101000
          -116 268 callsubr
          71 rcurveline
          23 -31 -39 19 -40 hhcurveto
          -97 -99 -121 -104 hvcurveto
          endchar
        </CharString>
        <CharString name="f_b">
          316 -8 51 -43 56 287 70 -65 77 127 102 -15 -20 hstemhm
          85 129 -126 125 173 129 129 138 hintmask 0110101011000000
          305 hmoveto
          52 vlineto
          -73 292 callgsubr
          hintmask 1010100111000000
          -116 60 hlineto
          62 47 17 43 31 27 220 callsubr
          hintmask 0101011011000000
          136 -67 61 -87 -44 -40 -16 -29 -29 vhcurveto
          259 vlineto
          hintmask 0110100111000000
          -17 16 -28 -5 -35 -12 -32 -13 rlinecurve
          17 -29 -33 12 -32 hhcurveto
          -111 -110 -113 -104 hvcurveto
          -23 vlineto
          hintmask 0110101011000000
          -64 -12 -63 callsubr
          vlineto
          hintmask 1001101011000000
          530 43 rmoveto
          -18 366 callsubr
          19 5 17 hhcurveto
          50 27 -34 -110 -1 hvcurveto
          -113 -2 -28 -48 -55 hhcurveto
          endchar
        </CharString>
        <CharString name="f_f">
          152 0 56 287 70 116 102 -80 103 97 callgsubr
          hintmask 11011100
          -32 callsubr
          180 -264 vlineto
          -12 201 callsubr
          -36 12 callgsubr
          274 52 vlineto
          -75 8 rlineto
          -11 1 336 callgsubr
          264 114 70 vlineto
          hintmask 11011010
          -115 268 callsubr
          74 rcurveline
          21 -31 -39 18 -40 hhcurveto
          -97 -96 -121 -104 hvcurveto
          -16 -183 vlineto
          hintmask 11101100
          -82 callsubr
          endchar
        </CharString>
        <CharString name="f_f_b">
          625 -8 51 -43 56 287 70 -65 77 104 102 -79 102 -15 -20 97 callgsubr
          173 129 128 139 hintmask 0110010110110000
          -32 callsubr
          180 -264 vlineto
          -12 201 callsubr
          -12 callsubr
          276 52 vlineto
          -74 8 rlineto
          -11 1 336 callgsubr
          264 114 70 vlineto
          hintmask 1010010101110000
          -115 60 hlineto
          62 47 17 42 31 28 220 callsubr
          hintmask 0101001110110000
          359 callsubr
          vhcurveto
          259 vlineto
          hintmask 0110010101110000
          -17 16 -28 -5 -35 -12 -33 -13 rlinecurve
          17 -28 -33 12 -33 hhcurveto
          -110 -110 -113 -104 hvcurveto
          -24 -183 vlineto
          hintmask 0110100110110000
          -82 callsubr
          hintmask 1001010110110000
          838 43 rmoveto
          -17 366 callsubr
          18 5 18 hhcurveto
          50 27 -34 -110 -2 hvcurveto
          -113 -1 -28 -48 -56 hhcurveto
          endchar
        </CharString>
        <CharString name="f_f_h">
          663 11 callgsubr
          287.5 70 -68 78 106 102 -79 102 -16 -20 97 callgsubr
          181 128 125 131 hintmask 1100101101100000
          -29 callgsubr
          hintmask 1100101011100000
          -115 129 callsubr
          -9 27 vhcurveto
          -459 vlineto
          -12 -68 callgsubr
          -12 callsubr
          225 52 vlineto
          -25 156 callgsubr
          hintmask 1010011101100000
          247 vlineto
          12 21 22 6 20 hhcurveto
          43 19 -25 -68 hvcurveto
          -172 vlineto
          -12 -5 -5 -11 -4 vhcurveto
          -25 12 callgsubr
          229 -21 callsubr
          -52 -43 -16 -33 -34 vhcurveto
          264 vlineto
          hintmask 1100101011100000
          55 callgsubr
          hintmask 1101001101100000
          -82 callsubr
          endchar
        </CharString>
        <CharString name="f_f_k">
          648 11 callgsubr
          287.5 70 -49 49 116 102 -79 102 -16 -20 97 callgsubr
          181 128 68 217 hintmask 1100101101000000
          -29 callgsubr
          hintmask 1100101011000000
          -115 129 callsubr
          -9 27 vhcurveto
          -459 vlineto
          -11 -6 -8 -11 -2 vhcurveto
          -12 callsubr
          239 52 vlineto
          -38 -81 callgsubr
          56 vlineto
          48 47 7 -12 7 33 callgsubr
          -6 4 -6 13 rlinecurve
          -58 111 rlineto
          hintmask 1010101101100000
          -17 33 -14 23 -17 20 68 66 rcurveline
          12 11 7 2 19 4 43 11 rcurveline
          hintmask 1100101101100000
          49 -217 vlineto
          hintmask 1010011101100000
          -49 vlineto
          67 -12 -135 -143 rlineto
          429 vlineto
          hintmask 1100101011000000
          55 callgsubr
          hintmask 1101001101000000
          -82 callsubr
          endchar
        </CharString>
        <CharString name="f_f_l">
          412 11 callgsubr
          287.5 70 116 102 -79 102 -16 -20 97 callgsubr
          181 128 hintmask 1101011010000000
          -29 callgsubr
          hintmask 1101010110000000
          -115 129 callsubr
          -9 27 vhcurveto
          -460 116 callsubr
          -12 callsubr
          245 338 callsubr
          hintmask 1100111010000000
          558 vlineto
          hintmask 1101010110000000
          55 callgsubr
          hintmask 1110011010000000
          -82 callsubr
          endchar
        </CharString>
        <CharString name="f_h">
          354 11 callgsubr
          287.5 70 -68 78 129 162 callgsubr
          124 132 hintmask 1101010110000000
          -32 callsubr
          115 70 vlineto
          hintmask 1101001110000000
          -116 129 callsubr
          -8 27 vhcurveto
          -460 vlineto
          -12 -68 callgsubr
          -12 callsubr
          225 52 vlineto
          -24 156 callgsubr
          hintmask 1010110110000000
          248 vlineto
          11 20 22 6 20 hhcurveto
          43 19 -25 -68 hvcurveto
          -172 vlineto
          -12 -5 -5 -11 -4 vhcurveto
          -24 12 callgsubr
          228 52 vlineto
          -40 7 rlineto
          -11 171 callgsubr
          186 vlineto
          100 -30 57 -97 328 callgsubr
          263 vlineto
          hintmask 1101001110000000
          64 callgsubr
          hintmask 1101010110000000
          76 callgsubr
        </CharString>
        <CharString name="f_k">
          340 11 callgsubr
          287.5 70 -49 49 139 162 callgsubr
          67 217 hintmask 1101010100000000
          -32 callsubr
          115 70 vlineto
          hintmask 1101001100000000
          -116 129 callsubr
          -8 27 vhcurveto
          -460 vlineto
          -11 -6 -8 -11 -2 vhcurveto
          -12 callsubr
          239 52 vlineto
          -38 7 rlineto
          -11 171 callgsubr
          57 vlineto
          47 46 8 -12 6 33 callgsubr
          -5 4 -7 13 rlinecurve
          -58 111 rlineto
          hintmask 1011010110000000
          -17 33 -13 22 -17 20 68 67 rcurveline
          11 11 7 2 20 4 42 11 rcurveline
          hintmask 1101010110000000
          49 -217 vlineto
          hintmask 1010110110000000
          -49 vlineto
          67 -12 -134 -142 rlineto
          428 vlineto
          hintmask 1101001100000000
          64 callgsubr
          hintmask 1101010100000000
          76 callgsubr
        </CharString>
        <CharString name="f_l">
          104 11 callgsubr
          287.5 70 139 162 callgsubr
          hintmask 11101010
          -32 callsubr
          115 70 vlineto
          hintmask 11100110
          -116 129 callsubr
          -8 27 vhcurveto
          -461 116 callsubr
          -12 callsubr
          246 338 callsubr
          hintmask 11011010
          558 vlineto
          hintmask 11100110
          64 callgsubr
          hintmask 11101010
          76 callgsubr
        </CharString>
        <CharString name="five">
          -61 -12 78 184 78 80 94 hstem
          262 142 vstem
          55 13 callsubr
        </CharString>
        <CharString name="five.tf">
          -36 -12 78 184 78 80 94 hstem
          274 142 vstem
          67 13 callsubr
        </CharString>
        <CharString name="four">
          -33 173 callsubr
          249 120 hintmask 01011000
          31 23 callsubr
        </CharString>
        <CharString name="four.dnom">
          -106 21 -21 68 252 callsubr
          17 hstem
          205 91 vstem
          50 83 callgsubr
        </CharString>
        <CharString name="four.numr">
          -106 295 252 callsubr
          -20 20 17 hstemhm
          208 91 hintmask 11010000
          53 67 callgsubr
        </CharString>
        <CharString name="four.tf">
          -36 173 callsubr
          248 120 hintmask 01011000
          30 23 callsubr
        </CharString>
        <CharString name="foursuperior">
          -118 295 252 callsubr
          -20 20 17 hstemhm
          202 91 hintmask 11010000
          47 67 callgsubr
        </CharString>
        <CharString name="fraction">
          151 callgsubr
        </CharString>
        <CharString name="g">
          -84 callgsubr
          endchar
        </CharString>
        <CharString name="gbreve">
          40 callsubr
          73 86 124 callsubr
          hintmask 1110101001010000
          -35 callsubr
          hintmask 1111001010100000
          80 callgsubr
          hintmask 1110011010100000
          89 vlineto
          hintmask 1110101010100000
          -38 callgsubr
          hintmask 1110101001100000
          95 callsubr
          hintmask 1110101100100000
          96 callgsubr
          hintmask 1110101001010000
          153 97 65 102 hvcurveto
          hintmask 1110101100010000
          -49 callsubr
          hintmask 1110101010100000
          -3 callgsubr
          207 312 -74 callsubr
        </CharString>
        <CharString name="gcircumflex">
          40 callsubr
          101 372 callsubr
          124 callsubr
          hintmask 1110101100101000
          -35 callsubr
          hintmask 1111001101010000
          80 callgsubr
          hintmask 1110011101010000
          89 vlineto
          hintmask 1110101101010000
          -38 callgsubr
          hintmask 1110101100110000
          95 callsubr
          hintmask 1110101110010000
          96 callgsubr
          hintmask 1110101100101000
          153 97 65 102 hvcurveto
          hintmask 1110101110001000
          -49 callsubr
          hintmask 1110101101010000
          -3 callgsubr
          -59 177 -76 callgsubr
        </CharString>
        <CharString name="gcommaaccent">
          -84 callgsubr
          -5 266 89 callsubr
        </CharString>
        <CharString name="gdotaccent">
          40 callsubr
          73 131 164 callgsubr
          10 143 -25 128 -82 135 hintmask 1110100001001000
          -35 callsubr
          hintmask 1111000010010000
          80 callgsubr
          hintmask 1110010010010000
          89 vlineto
          hintmask 1110100010010000
          -38 callgsubr
          hintmask 1110100001010000
          95 callsubr
          hintmask 1110100100010000
          96 callgsubr
          hintmask 1110100001001000
          153 97 65 102 hvcurveto
          hintmask 1110100100001000
          -49 callsubr
          hintmask 1110100010010000
          -3 callgsubr
          hintmask 1110101000100000
          136 256 -72 callgsubr
          endchar
        </CharString>
        <CharString name="germandbls">
          111 -11 51 -40 -52 callsubr
          -55.5 141 273 -20 22 -20 180 78 hstemhm
          85 131 72 126 -31 132 -54 131 hintmask 1000111101000000
          592 122 rmoveto
          61 -34 33 -67 40 vhcurveto
          -51 31 -26 18 29 vvcurveto
          33 33 22 48 11 vhcurveto
          hintmask 0101011010000000
          13 35 7 32 30 vvcurveto
          106 -2 -91 51 -91 hhcurveto
          -132 -114 -108 -110 hvcurveto
          -22 vlineto
          -61 -12 rlineto
          -50 vlineto
          61 -10 rlineto
          -263 116 callsubr
          -12 callsubr
          187 473 vlineto
          74 31 29 49 56 31 -39 -62 vhcurveto
          hintmask 0100111010000000
          -20 -3 -19 -5 -20 vhcurveto
          hintmask 1000111101000000
          -49 -25 -38 -39 -56 vvcurveto
          -55 35 -33 51 -30 vhcurveto
          49 -29 38 -23 -41 vvcurveto
          -28 -22 -17 -28 -18 -15 7 9 -10 vhcurveto
          hintmask 0010111100000000
          -9 7 -3 6 -5 17 -15 55 rcurveline
          -65 hlineto
          hintmask 1000111000000000
          -4 -22 -2 -25 -25 vvcurveto
          -16 1 -18 2 -16 vhcurveto
          -16 38 55 -14 55 hhcurveto
          hintmask 1000111101000000
          100 76 44 89 hvcurveto
          endchar
        </CharString>
        <CharString name="grave">
          -132 455 204 hstem
          59 210 vstem
          130 659 -30 callgsubr
        </CharString>
        <CharString name="gravecomb">
          455 204 hstem
          -123 210 vstem
          -52 659 -30 callgsubr
        </CharString>
        <CharString name="gravecomb.case">
          651 -20 hstem
          -142 244 vstem
          -84 780 17 callgsubr
          endchar
        </CharString>
        <CharString name="greater">
          -91 414 -20 hstem
          37 342 vstem
          379 188 rmoveto
          69 vlineto
          -304 157 -38 -81 239 -110 -239 -110 38 -82 rlineto
          endchar
        </CharString>
        <CharString name="greaterequal">
          -72 0 79 hstem
          44 342 vstem
          386 269 rmoveto
          68 vlineto
          -305 147 -34 -83 237 -98 -237 -99 34 -81 rlineto
          298 -123 rmoveto
          79 -335 -79 vlineto
          endchar
        </CharString>
        <CharString name="guillemotleft">
          50 420 -20 hstem
          26 491 vstem
          26 193 87 callgsubr
          237 -58 87 callgsubr
          endchar
        </CharString>
        <CharString name="guillemotleft.gujr">
          159 56 393 hstem
          80 491 vstem
          80 222 86 callsubr
          237 -58 86 callsubr
          endchar
        </CharString>
        <CharString name="guillemotright">
          47 420 -20 hstem
          29 488 178 callsubr
          451 166 223 callsubr
          endchar
        </CharString>
        <CharString name="guillemotright.gujr">
          156 56 393 hstem
          85 487 vstem
          339 222 106 callgsubr
          450 166 106 callgsubr
          endchar
        </CharString>
        <CharString name="guilsinglleft">
          -187 420 -20 hstem
          26 254 vstem
          26 193 87 callgsubr
          endchar
        </CharString>
        <CharString name="guilsinglleft.gujr">
          -77 56 393 hstem
          80 254 vstem
          80 222 86 callsubr
          endchar
        </CharString>
</ttFont>
